<svg id="Layer_1" data-name="Layer 1" xmlns="http://www.w3.org/2000/svg" xmlns:xlink="http://www.w3.org/1999/xlink" viewBox="0 0 100 78.46"><defs><style>.cls-1{fill:url(#linear-gradient);}.cls-2{fill:#fff;}</style><linearGradient id="linear-gradient" x1="27.9" y1="22.3" x2="72.07" y2="22.3" gradientUnits="userSpaceOnUse"><stop offset="0" stop-color="#3283af"/><stop offset="1" stop-color="#00c2b2"/></linearGradient></defs><title>logg</title><path class="cls-1" d="M71.9,5.66l0-.34a23.23,23.23,0,0,0,.14-2.49V0H68.48l-.55,0-.3,0h-.26l-.6.06h0l-.3,0h0a21.38,21.38,0,0,0-4.1.94h0l-.5.18a21.09,21.09,0,0,0-2.63,1.14,22.18,22.18,0,0,0-2.47,1.49L56.62,4h0c-.44.3-.87.63-1.29,1a21.73,21.73,0,0,0-4.14,4.48,6.92,6.92,0,0,1-2.13,0l-.28,0c-.25-.36-.52-.72-.79-1.06l-.29-.36c-.17-.21-.36-.43-.55-.64s-.53-.6-.82-.88A20.57,20.57,0,0,0,44.64,5c-.41-.34-.85-.67-1.29-1h0l-.12-.08-.6-.4a21.36,21.36,0,0,0-4.49-2.23h0l0,0-.46-.16h0A21.3,21.3,0,0,0,33.53.18h0l-.31,0h0L32.65.08l-.28,0h-.25l-.37,0h-.13l-.89,0H27.9V2.83A23.57,23.57,0,0,0,28,5.33l0,.33h0A22.28,22.28,0,0,0,29,9.81h0l.18.5h0l.09.25h0a22.42,22.42,0,0,0,2,4.12h0l.53.77h0l.09.12h0c.32.46.64.89,1,1.31a22.24,22.24,0,0,0,4.43,4.18,7.12,7.12,0,0,1,.11,1.23,7.24,7.24,0,0,1-.11,1.24,22.23,22.23,0,0,0-4.43,4.18c-.37.46-.73.94-1.06,1.42-.17.26-.34.51-.5.77v0h0a22,22,0,0,0-2,4.11h0l-.09.25h0L29,34.8h0a22.36,22.36,0,0,0-.93,4.14h0l0,.34a23.27,23.27,0,0,0-.14,2.5v2.83h3.48l.48,0H32l.47,0h.15l.62-.06h0l.31,0h0a22.07,22.07,0,0,0,4.11-.94h0l.5-.17.67-.26c.4-.16.8-.33,1.19-.52l.13-.06a22.26,22.26,0,0,0,3.1-1.79h0l.11-.08h0c.44-.31.87-.64,1.29-1a22.29,22.29,0,0,0,4.14-4.48h0l.27,0h.1l.19,0h1.28l.27,0h0l.28,0a22.08,22.08,0,0,0,4.14,4.49c.41.34.84.66,1.29,1h0l.12.09a22.26,22.26,0,0,0,4.43,2.38l.67.25.5.18h0a21.38,21.38,0,0,0,4.1.94h0l.32,0h0c.56.06,1.11.1,1.67.12h3.63V41.78a23.27,23.27,0,0,0-.14-2.5v-.05l0-.29h0A22.36,22.36,0,0,0,71,34.8h0l-.16-.47,0,0a22,22,0,0,0-2.6-5.14h0l0,0,0-.05,0-.05h0c-.31-.45-.64-.89-1-1.31a22.23,22.23,0,0,0-4-3.89l-.39-.29a7.12,7.12,0,0,1-.11-1.23,7.21,7.21,0,0,1,.11-1.23,22,22,0,0,0,4.43-4.18c.34-.42.67-.86,1-1.3h0l0-.07,0,0a22,22,0,0,0,2.6-5.14l0,0L71,9.81h0a22.28,22.28,0,0,0,.93-4.15Zm-10.14,1a14.11,14.11,0,0,0,.37-1.42h0c0-.16.06-.32.08-.48V4.67l.06-.43s0-.08,0-.12,0-.25,0-.37,0-.17,0-.25,0-.17,0-.25,0-.33,0-.5V1.92a3.59,3.59,0,0,1,.35-.12l.14-.05.43-.13.08,0,.49-.14h0A18.84,18.84,0,0,1,66.44,1V2.83a16.49,16.49,0,0,1-.17,2.33,17,17,0,0,0-4.51,1.47Zm.2,5.63a12.72,12.72,0,0,0-2.58,2.6A12.38,12.38,0,0,0,58,17.28h0l0,.11c-.35.19-.68.36-1,.51a15.89,15.89,0,0,1-3.86,1.27,16.92,16.92,0,0,1,1.26-3.92c.16-.34.33-.68.51-1a12.24,12.24,0,0,0,2.5-1.45,12.35,12.35,0,0,0,4-5.08l.23-.12.34-.18.42-.2.16-.08L63,6.9l0,0A16.34,16.34,0,0,1,66.14,6a16.46,16.46,0,0,1-1.73,4.87A12.85,12.85,0,0,0,62,12.26Zm1.71-.19a17.12,17.12,0,0,1-2,2.45,16.76,16.76,0,0,1-2.5,2.1,7.16,7.16,0,0,1,.39-.66h0c.06-.11.13-.21.2-.32l.19-.26a.1.1,0,0,1,0,0,11.27,11.27,0,0,1,2.07-2.18l.35-.27.3-.22.27-.18,0,0C63.25,12.32,63.45,12.19,63.67,12.07ZM59.38,29.74A12.47,12.47,0,0,0,62,32.34a12.85,12.85,0,0,0,2.45,1.43,16.56,16.56,0,0,1,1.73,4.87h0A16.19,16.19,0,0,1,63.68,38l0,0c-.19-.06-.38-.14-.56-.21L63,37.67l-.46-.2-.27-.13-.31-.14-.57-.31v0l0-.08h0a12.63,12.63,0,0,0-1.09-2l-.27-.39-.4-.51c-.13-.16-.27-.32-.41-.47L59,33.33a12.07,12.07,0,0,0-1.68-1.51,11,11,0,0,0-1.15-.77l-.39-.22a10.59,10.59,0,0,0-1-.46c-.09-.16-.17-.33-.26-.5s-.17-.34-.25-.51l0-.09c-.06-.13-.12-.26-.17-.39s-.07-.17-.11-.26l-.09-.22c0-.12-.09-.24-.14-.37a.49.49,0,0,0,0-.11c0-.16-.11-.31-.16-.47v0a17.07,17.07,0,0,1-.51-2A15.72,15.72,0,0,1,57,26.7c.35.17.69.34,1,.52A12.79,12.79,0,0,0,59.38,29.74ZM59.19,28a16.73,16.73,0,0,1,2.5,2.11,17.12,17.12,0,0,1,2,2.45h0L63,32.16l0,0L62.74,32c-.1-.06-.2-.14-.3-.21h0l-.19-.15A11.31,11.31,0,0,1,60,29.29a3.71,3.71,0,0,1-.23-.32l-.18-.27,0-.05C59.44,28.43,59.31,28.21,59.19,28Zm.92,8.15h0c-.43-.29-.84-.6-1.24-.92l0-.05-.54-.46-.57-.54h0c-.19-.2-.38-.39-.56-.6h0c-.18-.2-.36-.41-.53-.62h0a16.28,16.28,0,0,1-1-1.33h0a12,12,0,0,1,1.27.83,11.71,11.71,0,0,1,2.42,2.45A10.39,10.39,0,0,1,60.11,36.13Zm-17.5-4.32a12.52,12.52,0,0,0-4,5.08,15.86,15.86,0,0,1-4.79,1.75A16.4,16.4,0,0,1,35,34.94v0c.18-.39.37-.77.57-1.15A11.37,11.37,0,0,0,38,32.34a12.4,12.4,0,0,0,4-5.12c.31-.18.65-.35,1-.52l0,0,.42-.19.33-.14.14-.06.43-.16,0,0a16,16,0,0,1,2.44-.67,16.36,16.36,0,0,1-1.25,3.91c-.16.35-.34.69-.52,1A12.68,12.68,0,0,0,42.61,31.81Zm1.74-.21a15.94,15.94,0,0,1-2.09,2.55,16.19,16.19,0,0,1-2.4,2,6.82,6.82,0,0,1,.39-.64h0l.2-.3c0-.07.09-.14.14-.2l.08-.11a11.71,11.71,0,0,1,2.42-2.45l.08-.06.23-.16.29-.2h0C43.92,31.85,44.14,31.73,44.35,31.6Zm-8,.94c.06-.1.13-.2.2-.3v0l.28-.39.08-.11.25-.32.06-.08c.11-.13.21-.26.32-.38l.07-.09.26-.3a.94.94,0,0,0,.1-.1l.34-.36c.12-.13.24-.25.37-.37l.11-.1.28-.27.11-.09.38-.33.09-.07a3.92,3.92,0,0,1,.32-.25l.12-.1.34-.25.08-.06.31-.21a13.62,13.62,0,0,1-.83,1.3,11.71,11.71,0,0,1-2.43,2.44A10.75,10.75,0,0,1,36.31,32.54ZM40.67,15a1,1,0,0,0-.08-.11,12.76,12.76,0,0,0-1.5-1.7A13.66,13.66,0,0,0,38,12.26a12.26,12.26,0,0,0-2.45-1.43l-.3-.57a1.47,1.47,0,0,0-.1-.22c-.06-.12-.12-.25-.17-.37s-.15-.33-.22-.5a.42.42,0,0,0,0-.1c-.08-.2-.15-.4-.22-.6h0A16.77,16.77,0,0,1,33.83,6h0a16.15,16.15,0,0,1,4.79,1.76A12.09,12.09,0,0,0,40,10.19a12.42,12.42,0,0,0,2.57,2.6A12.48,12.48,0,0,0,45,14.19h0l.11.05c.21.36.37.69.52,1a16.43,16.43,0,0,1,1.25,3.92h0a14.68,14.68,0,0,1-2-.5h0l-.45-.16-.09,0L44,18.31l-.19-.08-.27-.11-.43-.2h0l-.05,0c-.34-.16-.65-.33-.95-.49L41.87,17A12.87,12.87,0,0,0,40.67,15Zm.12,1.64-.32-.22-.06,0-.35-.26L39.94,16l-.33-.26-.08-.06-.39-.34-.09-.09-.3-.27-.1-.1-.37-.36c-.12-.12-.23-.24-.34-.37h0l-.08-.09-.26-.3-.07-.08-.32-.38-.07-.09-.24-.32a.44.44,0,0,1-.08-.11c-.09-.11-.17-.23-.25-.35s-.16-.23-.24-.35h0a10.66,10.66,0,0,1,1.22.8A12,12,0,0,1,40,15.32,12.47,12.47,0,0,1,40.79,16.62Zm-.92-8.14A16.88,16.88,0,0,1,44.36,13h0l-.64-.39,0,0-.27-.18a3.55,3.55,0,0,1-.31-.23,11.43,11.43,0,0,1-2.42-2.44c-.08-.1-.15-.21-.22-.31l-.18-.26,0-.05c-.14-.21-.26-.42-.38-.63Zm12.29,16c-.53-.07-1.07-.11-1.62-.13H50a17.32,17.32,0,0,0-2.17.14c0-.37.08-.73.1-1.1a1.93,1.93,0,0,0,0-.24c0-.11,0-.21,0-.32s0-.37,0-.56,0-.37,0-.56,0-.29,0-.44a.41.41,0,0,1,0-.11c0-.36-.06-.71-.1-1.06v0a17.16,17.16,0,0,0,2.16.13h.56l.53,0h0l.54,0h0l.53-.06h0a17.59,17.59,0,0,0,0,4.43ZM50,19.47h0c-.37,0-.75,0-1.13,0h-.08l-.48-.05-.57-.07a19.58,19.58,0,0,0-.51-2.14l0-.09a16.83,16.83,0,0,0-.82-2.14l-.09-.18s0-.07-.05-.1a11.63,11.63,0,0,0,2.34.51h0l.46.05h0l.47,0h1l.21,0H51l.35,0,.13,0a3,3,0,0,0,.42-.06h.05a12.64,12.64,0,0,0,1.84-.44h0l-.13.28a17.44,17.44,0,0,0-1.36,4.37A16,16,0,0,1,50,19.47Zm-7,2.39v-.09l0-.43v-.11l0-.35V20.8l-.06-.42h0v-.08c0-.09,0-.18,0-.27s0-.09,0-.14h0a.29.29,0,0,0,0-.09c0-.11,0-.22-.07-.33l0-.09c0-.14-.07-.28-.11-.42v-.05a.49.49,0,0,0,0-.11c0-.09,0-.17-.07-.26h0v0l0,0h0l.2.09A17.28,17.28,0,0,0,47,20a16.12,16.12,0,0,1,0,4.67A16.93,16.93,0,0,0,42.67,26l-.19.1v0h0l0,0v0l0,0c0-.13.07-.25.11-.37v-.06c0-.14.08-.27.11-.41l0-.09.09-.42v0c0-.14.05-.27.07-.41v-.09l.06-.42v-.08c0-.13,0-.25,0-.38v-.12l0-.38v-.09h0c0-.14,0-.29,0-.44S43,22,43,21.86Zm3.32,7.82a17.8,17.8,0,0,0,1.36-4.38A16,16,0,0,1,50,25.14a17.35,17.35,0,0,1,2.28.16,17.19,17.19,0,0,0,1.36,4.37c0,.1.09.19.14.29h0l-.36-.11-.18-.05L53,29.73l-.18,0-.28-.07-.13,0-.4-.07-.16,0-.28,0-.16,0-.35,0H51c-.32,0-.65,0-1,0A12.28,12.28,0,0,0,46.2,30ZM57.3,26a17.67,17.67,0,0,0-3.61-1.23l-.27-.05L53,24.64A16.12,16.12,0,0,1,53,20a16.81,16.81,0,0,0,4.33-1.38l.25-.12a12.56,12.56,0,0,0,0,7.67ZM55.6,13c.31-.45.64-.9,1-1.32h0l.26-.31,0,0,.24-.27.08-.09.2-.21.17-.18.12-.12.06-.06.51-.48.57-.49,0,0c.4-.33.82-.64,1.25-.93a11.11,11.11,0,0,1-.81,1.25,11.25,11.25,0,0,1-2.42,2.45A10,10,0,0,1,55.6,13Zm-1.15-6.2h0l.44-.41.1-.1L55.36,6a3.47,3.47,0,0,1,.29-.25l.18-.15.44-.36a6.74,6.74,0,0,1-3.86,3.9A21.33,21.33,0,0,1,54.45,6.81Zm-4.78,3.52H50c.22,0,.43,0,.64,0h0c-.23.35-.44.71-.65,1.08-.1-.18-.2-.36-.31-.54s-.21-.36-.33-.54ZM44.14,5.58a21.35,21.35,0,0,1,3.43,3.55h0a6.76,6.76,0,0,1-3.87-3.9h0ZM38.39,2.21h0l.22.1.38.15.24.11.36.16.24.12.36.17.23.12.38.2.2.11.46.27.1.06.56.35.16.11.32.21a7.53,7.53,0,0,0,5.65,5.69l.15.22,0,0a21.64,21.64,0,0,1,1.17,2L50,13v0l0,0,.33-.65a19.92,19.92,0,0,1,1.17-2l.16-.25a7.51,7.51,0,0,0,5.66-5.69l.32-.22.16-.1.56-.35.11-.07.46-.26.2-.11.37-.2L59.73,3l.36-.18.24-.11.36-.16.24-.11.37-.15.24-.1.05,0v.55a11.85,11.85,0,0,1-.84,4.38l0,0a17.44,17.44,0,0,0-3.58,2.74,17.21,17.21,0,0,0-2.84,3.72,11.49,11.49,0,0,1-4.34.85H49.6l-.33,0h0a10.46,10.46,0,0,1-1.37-.17h0l-.34-.07-.17,0-.28-.07-.24-.06L46.62,14l-.3-.1-.18-.06-.48-.18h0A16.65,16.65,0,0,0,44,11.19a15.32,15.32,0,0,0-1.15-1.27,16.61,16.61,0,0,0-3.58-2.74,11.91,11.91,0,0,1-.85-4.43ZM33.53,1a20.37,20.37,0,0,1,4.08,1v.83a12.35,12.35,0,0,0,.61,3.88A16.2,16.2,0,0,0,36,5.74h0l-.57-.18h-.06l-.51-.14-.18,0-.4-.09-.49-.1-.1,0a16.49,16.49,0,0,1-.17-2.33ZM28.76,4.73c0-.06,0-.12,0-.18l0-.42s0-.1,0-.15,0-.3,0-.45v0h0V3.41c0-.19,0-.39,0-.58V.76h2.68l.47,0H32l.35,0,.25,0h.13v2A18.09,18.09,0,0,0,32.89,5c-.53-.06-1.08-.11-1.62-.13H28.78C28.77,4.84,28.77,4.79,28.76,4.73ZM29.6,9.1l-.09-.3c-.09-.33-.17-.65-.25-1l0-.06-.09-.44s0-.06,0-.09l-.06-.3c0-.07,0-.15,0-.22l-.09-.51v0c0-.12,0-.24-.05-.37a.78.78,0,0,1,0-.16H30.7A16.21,16.21,0,0,1,33,5.83a17.38,17.38,0,0,0,1.43,4.52h0l0,0h0l0,0-.34-.1-.06,0h0l-.38-.1-.09,0-.42-.1h0L32.67,10h-.11l-.41-.06h-.07l-.39,0h-.07l-.43,0H29.83C29.75,9.57,29.67,9.33,29.6,9.1Zm7.33,10.75a21.15,21.15,0,0,1-1.74-1.53l-.12-.11-.28-.29-.22-.23-.23-.24c-.09-.11-.19-.21-.28-.31l-.17-.2c-.15-.17-.3-.35-.44-.53h0l-.37-.48h0l.24.1.07,0,.28.14.06,0a1.71,1.71,0,0,1,.23.13l.07,0,.27.16,0,0,.23.16.06.05.25.19,0,0,.21.19.07.06c.07.07.15.14.22.22h0a2.39,2.39,0,0,1,.22.23l.06.06.18.22,0,0a2.35,2.35,0,0,1,.19.25l.05.06.15.23,0,0,.17.28,0,.06a2,2,0,0,1,.13.25l0,0c0,.1.09.19.13.29l0,.06a2.77,2.77,0,0,1,.1.26Zm-3.48,8.34A21.93,21.93,0,0,1,37,24.71l0,0a2,2,0,0,1-.1.26l0,.06c0,.1-.08.2-.13.3l0,.05c0,.08-.08.16-.13.24l0,.07-.17.27,0,0-.15.23,0,.07c-.06.08-.12.17-.19.25l0,0-.18.23-.06.06-.22.23h0c-.07.08-.15.15-.22.22l-.07.06-.21.18,0,0-.25.19-.06.05-.23.15,0,0-.27.17-.07,0-.23.12-.06,0-.28.14-.07,0-.24.1,0,0ZM32.34,29.7h.06l.13,0,.14,0,.12,0,.14,0,.12,0,.14-.05.12,0,.13-.06.12,0,.13-.06.11-.05.14-.07.11-.05.13-.07.1-.06.14-.07.09-.06.14-.09.09-.05.14-.1.08,0,.14-.1.07-.06.15-.11.06-.05.16-.14.05,0,.18-.17h0c.13-.12.26-.25.38-.38h0l.17-.19,0-.05s.09-.1.13-.16l.05-.06.11-.15,0-.07.1-.15.06-.08.09-.14.06-.09.08-.14.06-.09c0-.05,0-.1.07-.14l.06-.1a.61.61,0,0,1,.07-.14.54.54,0,0,1,.05-.11l.06-.14a.37.37,0,0,0,.05-.11l.06-.14a1.17,1.17,0,0,0,0-.11.78.78,0,0,1,0-.14s0-.08,0-.12,0-.09.05-.14a.56.56,0,0,1,0-.12s0-.09,0-.14l0-.12a.83.83,0,0,0,0-.15l0-.12A.64.64,0,0,1,38,24h0l.23-.15a18.65,18.65,0,0,1,2-1.18l.65-.34h0L40.19,22a20.93,20.93,0,0,1-2-1.18l-.28-.19v0l0-.12a.83.83,0,0,0,0-.15l0-.12c0-.05,0-.1,0-.15a.76.76,0,0,1,0-.11c0-.05,0-.1,0-.15s0-.07,0-.11l-.06-.14a.56.56,0,0,0,0-.12l-.06-.14a1.17,1.17,0,0,1,0-.11L37.39,19a.47.47,0,0,1,0-.1.91.91,0,0,1-.07-.14l-.06-.1c0-.05-.05-.09-.07-.14l-.06-.1L37,18.29l-.06-.1-.09-.14L36.79,18l-.1-.14a.35.35,0,0,0,0-.08l-.11-.14-.05-.07a1,1,0,0,1-.13-.16l0,0-.17-.19h0c-.12-.14-.25-.26-.38-.39h0l-.18-.17-.05,0-.16-.13-.06,0-.15-.11-.07-.06-.14-.1L34.85,16l-.14-.09-.09-.06-.14-.08-.09-.06-.14-.08-.1-.05L34,15.53l-.1-.06-.14-.06-.11-.05-.13-.06-.12-.05-.13-.05-.12,0L33,15.11l-.12,0-.14,0-.12,0-.14,0-.13,0h0A21.28,21.28,0,0,1,31.1,12.8l0,0c-.09-.16-.17-.33-.25-.5a.54.54,0,0,1,0-.11l-.21-.44c0-.08-.07-.15-.1-.23s-.1-.23-.14-.34-.16-.37-.23-.56h1.1l.53,0h0l.52.07h0l.51.09h.05l.49.11h.06l.48.13.06,0,.47.16.07,0a4.37,4.37,0,0,1,.46.18h0a2.39,2.39,0,0,0,.13.21l.13.23c.05.09.11.18.17.27l.14.22a2.33,2.33,0,0,0,.17.26l.15.22.19.26c.05.07.09.14.14.2l.21.27c0,.06.09.13.15.19l.21.26.15.18c.08.1.17.19.25.28l.13.15.39.42.43.42.13.12.31.28.16.15.29.24.18.15.28.22.2.16L40,17l.22.15.27.19.23.14.27.18.23.14.22.13c0,.07.05.15.08.22s.07.17.09.25.07.2.1.29.06.17.08.25.06.2.08.3.05.16.07.25,0,.2.07.31A2,2,0,0,0,42,20l.06.32,0,.24c0,.11,0,.23,0,.34s0,.15,0,.23l0,.38c0,.06,0,.12,0,.19s0,.38,0,.57,0,.39,0,.58,0,.13,0,.19l0,.38c0,.08,0,.15,0,.23s0,.22,0,.34a2,2,0,0,1,0,.24c0,.1,0,.21,0,.32a2,2,0,0,0-.05.24c0,.1,0,.21-.07.31s0,.16-.07.25,0,.2-.08.3a2.25,2.25,0,0,1-.08.24c0,.1-.06.2-.1.3a2.34,2.34,0,0,1-.09.24l-.08.23-.22.13L41,27l-.28.17-.22.15-.27.19-.22.15-.27.2-.2.15-.28.22-.19.15-.28.25-.17.14-.3.28-.13.13-.42.41h0q-.2.2-.39.42l-.13.14-.25.29-.15.18-.22.26-.15.2-.2.25-.15.22-.18.25c-.06.07-.1.15-.15.22s-.12.17-.17.26l-.15.23-.16.26c0,.07-.09.15-.14.23l-.12.21h0l-.46.18-.07,0a4.26,4.26,0,0,1-.47.15l-.06,0-.48.13-.06,0-.49.11h-.05l-.51.08h0a4.35,4.35,0,0,1-.52.06h0l-.53,0H30.1A21.76,21.76,0,0,1,32.34,29.7ZM38.16,22c0-.1,0-.2,0-.3h0l0,0v0l.19.13.2.12.65.38-.49.29-.12.07-.4.25h0l-.06,0c0-.21,0-.42,0-.64ZM32.75,41.78v2h-.13l-.26,0-.3,0-.26,0H28.68V41.78c0-.2,0-.39,0-.59v-.08c0-.16,0-.32,0-.49s0-.1,0-.15l0-.42c0-.06,0-.11,0-.17s0-.12,0-.18H31.4l.34,0,.21,0,.29,0,.2,0,.45,0A18.38,18.38,0,0,0,32.75,41.78Zm.26-3c-.27,0-.55.07-.82.09h-.08l-.35,0h-2.9a21.58,21.58,0,0,1,.64-3.1v0c.1-.34.2-.68.32-1h1.36l.43,0h.07l.39,0h.07l.42-.06.1,0,.41-.07h0l.42-.09.09,0,.41-.11.07,0,.35-.11,0,.06,0,0h0A17,17,0,0,0,33,38.78Zm4.6,3.07v.84a21.07,21.07,0,0,1-4.08,1V41.78a16.64,16.64,0,0,1,.17-2.34l.59-.11.3-.07.28-.07.46-.12.11,0,.54-.16h0A18.94,18.94,0,0,0,38.2,38h0A12.4,12.4,0,0,0,37.61,41.85ZM44.14,39l-.44.35a6.75,6.75,0,0,1,3.86-3.89A21.63,21.63,0,0,1,44.14,39Zm5.2-4.74.06-.09c.2-.31.38-.63.56-1l0,0c.21.37.42.73.65,1.08A9.26,9.26,0,0,0,49.34,34.29ZM55.83,39l-.48-.4-.21-.2-.25-.22-.32-.3-.13-.12-.39-.4,0,0-.42-.45h0c-.42-.46-.81-.93-1.19-1.42h0a6.76,6.76,0,0,1,3.87,3.9Zm5.76,3.37h-.05l-.24-.1-.37-.15L60.69,42l-.36-.16-.24-.12-.26-.13-.1,0,0,0-.18-.09-.38-.21-.19-.1-.49-.29-.08,0-.56-.35-.15-.1-.33-.23a7.48,7.48,0,0,0-.4-1.24.36.36,0,0,0,0-.09c-.09-.22-.19-.42-.3-.63l0-.07c-.07-.12-.14-.24-.22-.36l-.08-.13a7.21,7.21,0,0,0-.47-.62c-.12-.15-.24-.29-.37-.43l-.27-.26-.05-.05-.23-.2a5.46,5.46,0,0,0-.45-.36L54,35.45l-.36-.21-.27-.15a7.29,7.29,0,0,0-1.75-.63l0-.08-.1-.16h0c-.19-.29-.38-.59-.56-.89s-.41-.73-.61-1.11L50,31.58v0l0,0v0l-.33.65a21.27,21.27,0,0,1-1.17,2l-.16.24a7.53,7.53,0,0,0-5.66,5.69,3.62,3.62,0,0,1-.32.22l-.16.11c-.18.12-.37.23-.56.34l-.1.07-.46.26-.21.12-.37.2-.23.11-.36.18-.24.11-.36.17-.24.1-.37.16-.24.09,0,0v-.55a11.76,11.76,0,0,1,.86-4.43,17.43,17.43,0,0,0,3.57-2.73A17.21,17.21,0,0,0,45.66,31l.06,0A11.36,11.36,0,0,1,50,30.12c.37,0,.73,0,1.1.05l.18,0,.27,0,.32,0,.1,0a11.38,11.38,0,0,1,2.34.68,17.59,17.59,0,0,0,2.83,3.72,17.33,17.33,0,0,0,3.59,2.74,11.68,11.68,0,0,1,.86,4.42Zm4.85,1.26h0c-.52-.07-1-.16-1.54-.27h0l-.51-.11h0l-.48-.12-.12,0-.38-.1-.26-.08-.24-.07-.5-.17v-.84c0-.16,0-.33,0-.49s0-.2,0-.29,0-.14,0-.21,0-.28,0-.41a.25.25,0,0,1,0-.08c0-.16,0-.32-.07-.47v0A12.61,12.61,0,0,0,61.76,38a16.56,16.56,0,0,0,4.51,1.47,16.74,16.74,0,0,1,.17,2.34Zm4.77-3.78c0,.06,0,.11,0,.17l0,.43c0,.05,0,.1,0,.14s0,.33,0,.49v.08c0,.2,0,.39,0,.59v2.07H68.14l-.19,0-.35,0-.25,0h-.13v-2c0-.19,0-.37,0-.56s0-.18,0-.27a2.53,2.53,0,0,0,0-.28c0-.17,0-.33,0-.5v-.06l-.06-.55h0a17.28,17.28,0,0,0,2.16.14h2A1.1,1.1,0,0,0,71.21,39.88Zm-.11-.94H69.27A16.74,16.74,0,0,1,67,38.79H67c0-.2-.07-.4-.11-.6a2.86,2.86,0,0,0-.07-.28c0-.1,0-.21-.07-.31s-.07-.3-.11-.45a.74.74,0,0,1,0-.14l-.15-.51a.14.14,0,0,1,0-.06,18,18,0,0,0-.89-2.24h0a12.31,12.31,0,0,0,3.82.61h.82A20.92,20.92,0,0,1,71.1,38.94ZM66.52,28.19l.37.48h0A6.76,6.76,0,0,1,63,24.75,22.2,22.2,0,0,1,66.52,28.19Zm0-11.78A21.77,21.77,0,0,1,63,19.85a6.77,6.77,0,0,1,3.85-3.91Zm3.33-5.78-.12.29c0,.11-.09.22-.13.32l-.12.29-.15.32-.12.28a3.18,3.18,0,0,0-.16.32c0,.09-.09.18-.13.27l-.18.33c0,.08-.09.16-.13.25s-.14.25-.22.37a2,2,0,0,1-.11.2l-.33.54-.15.24-.17.25A7.55,7.55,0,0,0,62,20.63l-.24.16a21.37,21.37,0,0,1-2,1.18l-.65.33.65.34a19.73,19.73,0,0,1,2,1.18L62,24a7.55,7.55,0,0,0,5.64,5.72,1.76,1.76,0,0,1,.14.23c.06.09.13.18.18.27s.22.36.33.54l.12.21.21.36.13.25.18.33c0,.09.08.18.13.27s.11.21.16.32l.12.28.15.32.12.28.13.33.12.29,0,.06h-.52A11.3,11.3,0,0,1,65,33.17l-.21-.36-.25-.4-.2-.3c-.15-.24-.32-.47-.49-.71a17.23,17.23,0,0,0-1.52-1.8l0,0h0A17.51,17.51,0,0,0,59,26.91l-.38-.22,0-.06h0c-.07-.18-.13-.35-.19-.52a7.75,7.75,0,0,1-.27-.94l0-.12a12,12,0,0,1-.32-2.75,11.66,11.66,0,0,1,.85-4.38A17.33,17.33,0,0,0,65,11.43l.12,0,.4-.15.4-.13.13,0c.17-.06.34-.1.52-.15h0a11,11,0,0,1,2.76-.34h.55ZM61.84,23c-.35-.23-.71-.44-1.07-.65l.54-.31.51-.32h0c0,.21,0,.43,0,.64S61.82,22.73,61.84,23Zm8.3-13.14H68.85a11.86,11.86,0,0,0-3.35.6v0l.24-.52h0c.16-.37.31-.74.44-1.12h0c.06-.19.13-.37.19-.56a.14.14,0,0,1,0-.06l.15-.52a.75.75,0,0,0,0-.16c0-.14.08-.28.11-.42s.06-.23.08-.34l.06-.26c0-.19.08-.39.11-.59h0l.51-.07h.15l.38,0h.16l.51,0H71.1A20.85,20.85,0,0,1,70.14,9.81Zm1.15-7c0,.19,0,.39,0,.58V3.5c0,.16,0,.32,0,.48a.76.76,0,0,0,0,.15l0,.43c0,.05,0,.11,0,.16a1.1,1.1,0,0,0,0,.18H68.72l-.54,0h0L67.08,5V5c0-.36.08-.71.1-1.07,0-.13,0-.26,0-.39s0-.11,0-.17,0-.37,0-.55v-2h.13l.25,0,.31,0h3.38Z"/><path class="cls-2" d="M21.82,55.1a5.25,5.25,0,0,0-2.36-1.18,15.27,15.27,0,0,0-3.69-.37H0V73.68H15.77a15.79,15.79,0,0,0,3.69-.37,5.36,5.36,0,0,0,2.36-1.18A4.52,4.52,0,0,0,23.06,70a12.36,12.36,0,0,0,.36-3.23V60.45a12.41,12.41,0,0,0-.36-3.21A4.5,4.5,0,0,0,21.82,55.1ZM19,66.62a5.39,5.39,0,0,1-.19,1.57,2.07,2.07,0,0,1-.6,1,2.35,2.35,0,0,1-1.05.51,6.89,6.89,0,0,1-1.55.15H4.44V57.42H15.59a6.77,6.77,0,0,1,1.64.16,2.33,2.33,0,0,1,1,.53,2,2,0,0,1,.55,1A6.31,6.31,0,0,1,19,60.66Z"/><rect class="cls-2" x="28.18" y="58.09" width="4.44" height="15.58"/><path class="cls-2" d="M56.61,59.16A4.77,4.77,0,0,0,54.48,58a13.3,13.3,0,0,0-3.29-.35H44.13a14.91,14.91,0,0,0-3.35.31,4.53,4.53,0,0,0-2.1,1,3.87,3.87,0,0,0-1.08,2,12.59,12.59,0,0,0-.31,3.06V66.5A7.73,7.73,0,0,0,37.64,69a3.61,3.61,0,0,0,1.14,1.65,4.91,4.91,0,0,0,2.06.93,13.6,13.6,0,0,0,3.08.3h9.93v1.3a1.77,1.77,0,0,1-.41,1.32,2,2,0,0,1-1.37.39H46v3.6h6.46a6.27,6.27,0,0,0,4.29-1.2,5,5,0,0,0,1.32-3.88V64.06a11.23,11.23,0,0,0-.34-2.93A4.17,4.17,0,0,0,56.61,59.16Zm-2.76,9.26H44.18a7.21,7.21,0,0,1-1.25-.09,1.67,1.67,0,0,1-.8-.33,1.36,1.36,0,0,1-.44-.67,3.48,3.48,0,0,1-.13-1.06v-2.1A3.19,3.19,0,0,1,42.11,62a2.88,2.88,0,0,1,2.07-.57H51a3.35,3.35,0,0,1,2.22.56,2.88,2.88,0,0,1,.61,2.15Z"/><rect class="cls-2" x="62.82" y="58.09" width="4.44" height="15.58"/><polygon class="cls-2" points="88.85 63.26 99.65 53.61 93.62 53.61 85.64 60.73 78.07 53.61 71.7 53.61 82.47 63.29 71.06 73.68 77.23 73.68 85.38 66 93.56 73.68 100 73.68 88.85 63.26"/><rect class="cls-2" x="32.62" y="53.61" width="4.44" height="4.49"/><rect class="cls-2" x="67.26" y="53.61" width="4.44" height="4.49"/></svg>