<?xml version="1.0" encoding="UTF-8"?>
<svg width="164px" height="41px" viewBox="0 0 164 41" version="1.1" xmlns="http://www.w3.org/2000/svg" xmlns:xlink="http://www.w3.org/1999/xlink">
    <!-- Generator: Sketch 60.1 (88133) - https://sketch.com -->
    <title>moken</title>
    <desc>Created with Sketch.</desc>
    <g id="Symbols" stroke="none" stroke-width="1" fill="none" fill-rule="evenodd">
        <g id="Main-Menu" transform="translate(-110.000000, -63.000000)" fill="#000000" fill-rule="nonzero">
            <g id="Group" transform="translate(-1.000000, 3.000000)">
                <g id="Logo" transform="translate(111.000000, 60.000000)">
                    <path d="M8.56089112,38.9704369 L8.56089112,23.5293204 L8.56089112,23.5293204 C8.56089112,22.5139182 8.76222087,21.6035576 9.16488037,20.7982386 C9.56753988,19.9929196 10.1102549,19.3626699 10.7930253,18.9074896 C11.4757958,18.4523093 12.2723613,18.2247191 13.1827219,18.2247191 C14.4782351,18.2247191 15.4936373,18.7061598 16.2289286,19.6690413 C16.9642198,20.6319227 17.3318655,21.9536963 17.3318655,23.634362 L17.3318655,38.9704369 C17.3318655,39.1444755 17.4729517,39.2855617 17.6469903,39.2855617 L25.5776318,39.2855617 C25.7516704,39.2855617 25.8927566,39.1444755 25.8927566,38.9704369 L25.8927566,23.5293204 L25.8927566,23.5293204 C25.8927566,22.5139182 26.0940863,21.6035576 26.4967458,20.7982386 C26.8994053,19.9929196 27.4421203,19.3626699 28.1248908,18.9074896 C28.8076612,18.4523093 29.6042268,18.2247191 30.5145874,18.2247191 C31.8101006,18.2247191 32.8255028,18.7061598 33.560794,19.6690413 C34.2960853,20.6319227 34.6637309,21.9536963 34.6637309,23.634362 L34.6637309,38.9704369 C34.6637309,39.1444755 34.8048171,39.2855617 34.9788558,39.2855617 L42.9094972,39.2855617 C43.0835359,39.2855617 43.2246221,39.1444755 43.2246221,38.9704369 L43.2246221,22.5839459 L43.2246221,22.5839459 C43.2246221,20.0979612 42.8219626,17.9533617 42.0166436,16.1501474 C41.2113245,14.3469331 40.0558669,12.9551318 38.5502705,11.9747434 C37.0446741,10.9943551 35.2764736,10.5041609 33.2456692,10.5041609 C31.2148648,10.5041609 29.4116505,10.9768481 27.8360264,11.9222226 C26.2604022,12.8675971 25.0349168,14.0930825 24.15957,15.5986789 C23.354251,13.9880409 22.2425607,12.7362951 20.824499,11.8434414 C19.4064372,10.9505877 17.7870458,10.5041609 15.9663245,10.5041609 C14.2506449,10.5041609 12.7100347,10.9068204 11.3444938,11.7121394 C9.97895284,12.5174584 8.91102982,13.6028883 8.14072469,14.9684293 L8.14072469,11.6070978 C8.14072469,11.4330591 7.9996385,11.291973 7.82559986,11.291973 L0.315124827,11.291973 C0.141086191,11.291973 6.0294019e-15,11.4330591 0,11.6070978 L0,38.9704369 C-1.85539227e-15,39.1444755 0.141086191,39.2855617 0.315124827,39.2855617 L8.2457663,39.2855617 C8.41980493,39.2855617 8.56089112,39.1444755 8.56089112,38.9704369 Z M60.8716123,40.0733738 C63.0074584,40.0733738 64.9944955,39.6969747 66.8327236,38.9441765 C68.6709518,38.1913783 70.2640829,37.1497157 71.6121169,35.8191886 C72.9601508,34.4886616 74.0105669,32.9217909 74.7633651,31.1185766 C75.5161633,29.3153623 75.8925624,27.3633391 75.8925624,25.2625069 C75.8925624,23.1616748 75.5249168,21.218405 74.7896255,19.4326976 C74.0543343,17.6469903 73.0126716,16.0801196 71.6646377,14.7320856 C70.3166037,13.3840517 68.7409795,12.342389 66.9377653,11.6070978 C65.134551,10.8718065 63.1825277,10.5041609 61.0816956,10.5041609 C58.9458495,10.5041609 56.9588124,10.88056 55.1205843,11.6333582 C53.2823561,12.3861564 51.689225,13.4365725 50.3411911,14.7846064 C48.9931571,16.1326404 47.942741,17.7082646 47.1899428,19.5114788 C46.4371446,21.3146931 46.0607455,23.2667164 46.0607455,25.3675485 C46.0607455,27.4683807 46.4283911,29.4116505 47.1636824,31.1973578 C47.8989736,32.9830652 48.9406363,34.5411824 50.2886702,35.8717094 C51.6367042,37.2022365 53.2123284,38.2351456 55.0155426,38.9704369 C56.8187569,39.7057282 58.7707802,40.0733738 60.8716123,40.0733738 Z M60.976654,32.3528155 C59.8211963,32.3528155 58.7707802,32.0464442 57.8254057,31.4337015 C56.8800312,30.8209587 56.1359865,29.9806259 55.5932715,28.9127028 C55.0505565,27.8447798 54.779199,26.6455548 54.779199,25.3150277 C54.779199,23.9494868 55.0505565,22.7327549 55.5932715,21.6648318 C56.1359865,20.5969088 56.8800312,19.7565759 57.8254057,19.1438332 C58.7707802,18.5310905 59.8211963,18.2247191 60.976654,18.2247191 C62.1321117,18.2247191 63.1825277,18.5310905 64.1279022,19.1438332 C65.0732767,19.7565759 65.8173214,20.5969088 66.3600364,21.6648318 C66.9027514,22.7327549 67.1741089,23.9494868 67.1741089,25.3150277 C67.1741089,26.6455548 66.9027514,27.8447798 66.3600364,28.9127028 C65.8173214,29.9806259 65.0732767,30.8209587 64.1279022,31.4337015 C63.1825277,32.0464442 62.1321117,32.3528155 60.976654,32.3528155 Z M87.289577,38.9704369 L87.289577,25.525111 L87.289577,25.525111 L96.8592866,39.1515453 C96.9182865,39.235556 97.0145105,39.2855617 97.1171691,39.2855617 L106.870899,39.2855617 C107.044938,39.2855617 107.186024,39.1444755 107.186024,38.9704369 C107.186024,38.9010434 107.163119,38.8335903 107.120863,38.778546 L95.5353433,23.6868828 L95.5353433,23.6868828 L105.799057,11.8131748 C105.91287,11.6815086 105.898397,11.4825081 105.766731,11.3686949 C105.709479,11.3192062 105.63633,11.291973 105.560654,11.291973 L96.6816372,11.291973 C96.5876546,11.291973 96.4985769,11.3339214 96.4387123,11.4063712 L87.289577,22.4789043 L87.289577,22.4789043 L87.289577,0.315124827 C87.289577,0.141086191 87.1484908,-3.19703788e-17 86.9744521,0 L79.0438107,0 C78.869772,8.748153e-17 78.7286859,0.141086191 78.7286859,0.315124827 L78.7286859,38.9704369 C78.7286859,39.1444755 78.869772,39.2855617 79.0438107,39.2855617 L86.9744521,39.2855617 C87.1484908,39.2855617 87.289577,39.1444755 87.289577,38.9704369 Z M120.535246,40.0733738 C122.531037,40.0733738 124.404279,39.7494955 126.154972,39.1017389 C127.905666,38.4539823 129.437523,37.5436217 130.750543,36.3706571 C132.020282,35.2363565 132.987143,33.8974083 133.651126,32.3538125 C133.651126,32.3538125 133.651126,32.3538125 133.651126,32.3538125 C133.683451,32.2786655 133.648736,32.1915424 133.573589,32.1592177 C133.566773,32.1562855 133.559745,32.1538697 133.552574,32.151962 L126.03234,30.1835787 C125.948373,30.1615925 125.859437,30.1924327 125.807102,30.2616783 C125.807102,30.2616783 125.807102,30.2616783 125.807102,30.2616783 C125.162257,31.1148758 124.429127,31.7594008 123.607713,32.1952531 C122.749873,32.6504334 121.760732,32.8780236 120.640288,32.8780236 C119.134691,32.8780236 117.891699,32.4140898 116.911311,31.4862223 C115.930922,30.5583547 115.265659,29.2365811 114.91552,27.5209015 L133.928051,27.5209015 C134.10209,27.5209015 134.243176,27.3798153 134.243176,27.2057767 L134.243176,25.6301526 L134.243176,25.6301526 C134.243176,23.354251 133.910544,21.2884327 133.245281,19.4326976 C132.580017,17.5769626 131.634643,15.9838315 130.409157,14.6533044 C129.183672,13.3227774 127.713089,12.2986217 125.99741,11.5808374 C124.28173,10.8630531 122.373474,10.5041609 120.272642,10.5041609 C118.276852,10.5041609 116.421117,10.8718065 114.705437,11.6070978 C112.989757,12.342389 111.492914,13.3752982 110.214908,14.7058252 C108.936902,16.0363523 107.939007,17.5944695 107.221222,19.3801768 C106.503438,21.1658842 106.144546,23.109154 106.144546,25.2099861 C106.144546,27.380846 106.494684,29.3766366 107.194962,31.1973578 C107.895239,33.0180791 108.893135,34.5937032 110.188648,35.9242302 C111.484161,37.2547573 113.007264,38.278913 114.757958,38.9966973 C116.508651,39.7144816 118.434414,40.0733738 120.535246,40.0733738 Z M125.419681,22.0587379 L114.91552,22.0587379 C115.230645,20.413086 115.852141,19.1438332 116.780009,18.2509795 C117.707876,17.3581259 118.872087,16.911699 120.272642,16.911699 C121.638183,16.911699 122.76738,17.3581259 123.660234,18.2509795 C124.553088,19.1438332 125.13957,20.413086 125.419681,22.0587379 L125.419681,22.0587379 Z M145.377587,38.9704369 L145.377587,23.4242788 L145.377587,23.4242788 C145.377587,22.4438904 145.58767,21.5597902 146.007836,20.7719782 C146.428003,19.9841661 146.996978,19.3626699 147.714762,18.9074896 C148.432547,18.4523093 149.264126,18.2247191 150.209501,18.2247191 C151.540028,18.2247191 152.58169,18.7061598 153.334489,19.6690413 C154.087287,20.6319227 154.463686,21.9361893 154.463686,23.5818412 L154.463686,38.9704369 C154.463686,39.1444755 154.604772,39.2855617 154.778811,39.2855617 L162.709452,39.2855617 C162.883491,39.2855617 163.024577,39.1444755 163.024577,38.9704369 L163.024577,22.3738627 L163.024577,22.3738627 C163.024577,19.9579057 162.613164,17.865827 161.790338,16.0976266 C160.967512,14.3294261 159.812054,12.9551318 158.323965,11.9747434 C156.835876,10.9943551 155.093936,10.5041609 153.098145,10.5041609 C151.277424,10.5041609 149.666786,10.9068204 148.266231,11.7121394 C146.865676,12.5174584 145.762739,13.6028883 144.95742,14.9684293 L144.95742,11.6070978 C144.95742,11.4330591 144.816334,11.291973 144.642295,11.291973 L137.13182,11.291973 C136.957782,11.291973 136.816696,11.4330591 136.816696,11.6070978 L136.816696,38.9704369 C136.816696,39.1444755 136.957782,39.2855617 137.13182,39.2855617 L145.062462,39.2855617 C145.2365,39.2855617 145.377587,39.1444755 145.377587,38.9704369 Z" id="moken"></path>
                </g>
            </g>
        </g>
    </g>
</svg>