<svg width="24" height="24" viewBox="0 0 24 24" fill="none" xmlns="http://www.w3.org/2000/svg">
<path d="M4.59009 6.89C5.29009 6.18 5.99009 5.54 6.30009 5.67C6.80009 5.87 6.30009 6.7 6.00009 7.19C5.75009 7.61 3.14009 11.08 3.14009 13.5C3.14009 14.78 3.62009 15.84 4.48009 16.48C5.23009 17.04 6.22009 17.21 7.12009 16.94C8.19009 16.63 9.07009 15.54 10.1801 14.17C11.3901 12.68 13.0101 10.73 14.2601 10.73C15.8901 10.73 15.9101 11.74 16.0201 12.52C12.2401 13.16 10.6401 16.19 10.6401 17.89C10.6401 19.59 12.0801 20.98 13.8501 20.98C15.4801 20.98 18.1401 19.65 18.5401 14.88H21.0001V12.38H18.5301C18.3801 10.73 17.4401 8.18 14.5001 8.18C12.2501 8.18 10.3201 10.09 9.56009 11.02C8.98009 11.75 7.50009 13.5 7.27009 13.74C7.02009 14.04 6.59009 14.58 6.16009 14.58C5.71009 14.58 5.44009 13.75 5.80009 12.66C6.15009 11.57 7.20009 9.8 7.65009 9.14C8.43009 8 8.95009 7.22 8.95009 5.86C8.95009 3.69 7.31009 3 6.44009 3C5.12009 3 3.97009 4 3.72009 4.25C3.36009 4.61 3.06009 4.91 2.84009 5.18L4.59009 6.89ZM13.8801 18.55C13.5701 18.55 13.1401 18.29 13.1401 17.83C13.1401 17.23 13.8701 15.63 16.0101 15.07C15.7101 17.76 14.5801 18.55 13.8801 18.55Z" fill="black"/>
</svg>
