<svg width="1600" height="500" viewBox="0 0 1600 500" fill="none" xmlns="http://www.w3.org/2000/svg">
<g clip-path="url(#clip0)">
<rect y="-1087" width="1600" height="1587" fill="#B3B3B3"/>
<g clip-path="url(#clip1)">
<path d="M1369.03 290.504L1145 290.504L1145 187.699L1369.03 187.699C1382.66 187.699 1395.73 193.113 1405.37 202.751C1415.01 212.389 1420.42 225.461 1420.42 239.091V239.091C1420.42 245.842 1419.1 252.527 1416.51 258.765C1413.93 265.002 1410.15 270.67 1405.38 275.444C1400.6 280.219 1394.94 284.006 1388.7 286.59C1382.46 289.174 1375.78 290.504 1369.03 290.504V290.504Z" fill="black"/>
<path d="M1420.42 341.188L1624.61 341.188L1624.61 137.002L1420.42 137.002L1420.42 341.188Z" fill="#8B8B8B"/>
<path d="M1490.57 341.843C1502.98 334.558 1514.05 323.051 1520.09 309.905C1526.32 296.324 1523.98 281.807 1514.13 270.615C1504.03 259.141 1489.78 255.114 1476.47 248.792C1469.48 245.447 1462.98 241.098 1458.77 234.449C1454.22 227.23 1453.9 219.697 1453.53 211.435C1453.19 203.929 1451.02 197.386 1444.65 192.957C1437.65 188.074 1428.66 187.498 1420.42 188.201C1420.2 188.201 1419.99 188.288 1419.83 188.444C1419.68 188.599 1419.59 188.81 1419.59 189.03C1419.59 189.25 1419.68 189.461 1419.83 189.617C1419.99 189.772 1420.2 189.86 1420.42 189.86C1428.22 189.92 1436.48 189.967 1443.17 194.483C1450.4 199.339 1451.25 206.859 1451.42 214.92C1451.71 227.631 1456.41 238.663 1467.09 246.036C1478.23 253.722 1491.98 256.338 1503.18 263.978C1515.78 272.575 1524.67 287.119 1520.47 302.68C1516.17 318.569 1503.03 331.581 1489.79 340.532C1489.61 340.634 1489.48 340.802 1489.43 341C1489.38 341.197 1489.4 341.408 1489.5 341.586C1489.61 341.763 1489.78 341.893 1489.97 341.946C1490.17 341.999 1490.38 341.972 1490.56 341.87L1490.57 341.843Z" fill="white"/>
<path d="M1450.63 341.562C1461.54 332.564 1471.87 314.487 1463.74 300.799C1455.19 286.423 1435.79 283.82 1420.57 285.252C1420.32 285.252 1420.08 285.352 1419.9 285.53C1419.72 285.708 1419.62 285.95 1419.62 286.202C1419.62 286.454 1419.72 286.695 1419.9 286.874C1420.08 287.052 1420.32 287.152 1420.57 287.152C1428.33 287.948 1435.96 287.593 1443.59 289.654C1450.47 291.514 1456.91 295.307 1460.92 301.341C1469.42 314.146 1459.14 331.279 1449.89 340.812C1449.42 341.301 1450.12 341.976 1450.63 341.555L1450.63 341.562Z" fill="white"/>
<path d="M1623.88 230.388C1599.13 236.596 1572.46 238.724 1548.05 229.719C1537.53 225.845 1526.64 219.858 1520.01 210.559C1512.06 199.433 1514.95 186.475 1520.32 174.888C1526.34 161.976 1534.16 150.135 1540.8 137.618C1540.89 137.435 1540.9 137.225 1540.84 137.031C1540.78 136.837 1540.65 136.673 1540.48 136.57C1540.3 136.467 1540.1 136.434 1539.9 136.477C1539.7 136.52 1539.53 136.636 1539.41 136.801C1535.14 142.434 1531.61 148.803 1528.12 154.945C1524.63 161.086 1521.27 167.308 1518.29 173.677C1513.32 184.32 1509.96 196.362 1515.45 207.495C1520.39 217.483 1530.38 224.273 1540.2 228.903C1551.67 234.288 1564.2 237.044 1576.83 237.713C1592.84 238.563 1608.85 235.894 1624.29 231.799C1624.46 231.734 1624.61 231.606 1624.69 231.441C1624.77 231.276 1624.79 231.085 1624.74 230.907C1624.69 230.729 1624.58 230.576 1624.42 230.477C1624.27 230.379 1624.08 230.342 1623.9 230.374L1623.88 230.388Z" fill="white"/>
<path d="M1575.68 341.034C1572 331.969 1568.74 323.245 1567.94 313.384C1567.19 304.225 1567.06 291.581 1574.08 284.617C1580.37 278.369 1590.89 276.509 1599.42 276.877C1608.78 277.278 1616.42 280.931 1624.36 285.5C1624.52 285.585 1624.71 285.609 1624.89 285.57C1625.07 285.531 1625.23 285.43 1625.34 285.285C1625.45 285.14 1625.51 284.96 1625.5 284.777C1625.5 284.594 1625.42 284.419 1625.3 284.282C1612.85 272.24 1586.45 270.568 1573.3 282.369C1565.8 289.099 1565.36 301.101 1565.81 310.467C1566.33 320.997 1568.85 332.544 1574.64 341.469C1574.97 341.984 1575.94 341.663 1575.68 341.027L1575.68 341.034Z" fill="white"/>
<path d="M1448.93 137.436C1449.68 148.254 1457.04 159.513 1467.99 162.31C1473.38 163.648 1478.33 161.5 1481.7 157.212C1485.94 151.806 1488.91 144.193 1491.07 137.697C1491.37 136.781 1490.03 136.272 1489.55 137.028C1484.72 144.896 1480.74 163.287 1468.14 159.814C1458.27 157.092 1451.3 147.324 1450.39 137.41C1450.3 136.506 1448.9 136.486 1448.96 137.41L1448.93 137.436Z" fill="white"/>
<path d="M1586.99 137.162C1584.4 147.251 1585.61 161.353 1594.06 168.505C1602.34 175.516 1615.47 174.526 1624.69 169.95C1625.78 169.408 1625.01 167.709 1623.88 168.016C1618.85 169.388 1614.25 171.228 1608.94 171.228C1603.86 171.228 1598.63 169.736 1594.86 166.217C1591.31 162.919 1589.43 158.242 1588.61 153.539C1587.67 148.114 1588.61 142.735 1588.09 137.309C1588.03 136.721 1587.16 136.513 1586.99 137.162V137.162Z" fill="white"/>
<path d="M1358.33 210.049C1359.15 211.127 1359.92 212.224 1360.73 213.301C1361.45 214.43 1362.36 215.431 1363.41 216.264C1363.64 216.403 1363.91 216.476 1364.18 216.476C1364.46 216.476 1364.73 216.403 1364.96 216.264C1365.19 216.14 1365.38 215.949 1365.51 215.716C1365.65 215.481 1365.72 215.213 1365.72 214.94C1365.72 214.667 1365.65 214.399 1365.51 214.164C1364.71 213.152 1363.77 212.253 1362.73 211.488C1361.74 210.638 1360.8 209.775 1359.89 208.812C1359.14 208.036 1357.67 209.093 1358.35 210.003L1358.33 210.049Z" fill="white"/>
<path d="M1331.76 279.646C1334.27 278.903 1337.26 276.816 1336.83 273.819C1336.74 273.236 1335.99 273.203 1335.64 273.504C1333.97 274.902 1333.04 276.849 1331 277.839C1329.99 278.334 1330.7 279.96 1331.76 279.646V279.646Z" fill="white"/>
<path d="M1270.67 217.656L1273.54 220.58C1274.36 221.423 1275.36 222.754 1276.59 222.928C1276.77 222.97 1276.96 222.965 1277.14 222.912C1277.33 222.86 1277.49 222.763 1277.62 222.629C1277.76 222.495 1277.86 222.33 1277.91 222.148C1277.96 221.966 1277.97 221.774 1277.92 221.59C1277.74 220.359 1276.42 219.369 1275.58 218.539L1272.65 215.669C1272.38 215.403 1272.02 215.254 1271.64 215.254C1271.27 215.254 1270.9 215.403 1270.64 215.669C1270.37 215.935 1270.22 216.296 1270.22 216.673C1270.22 217.049 1270.37 217.41 1270.64 217.676L1270.67 217.656Z" fill="white"/>
<path d="M1387.51 252.33C1388.52 252.156 1389.45 251.233 1390.26 250.631C1391.06 250.029 1392.13 249.293 1392.33 248.243C1392.37 248.092 1392.37 247.934 1392.34 247.781C1392.31 247.628 1392.25 247.484 1392.15 247.36C1392.06 247.236 1391.94 247.134 1391.8 247.064C1391.66 246.993 1391.51 246.955 1391.35 246.952C1390.3 246.905 1389.29 247.741 1388.52 248.383C1387.75 249.025 1386.62 249.721 1386.21 250.651C1386.11 250.848 1386.06 251.072 1386.08 251.294C1386.1 251.516 1386.18 251.729 1386.32 251.906C1386.46 252.083 1386.64 252.217 1386.85 252.292C1387.06 252.367 1387.29 252.381 1387.51 252.33V252.33Z" fill="white"/>
<path d="M1290.94 272.635C1291.23 271.39 1291.33 270.109 1291.23 268.835C1291.23 267.57 1291.38 266.333 1290.86 265.169C1290.45 264.299 1289.18 264.446 1288.74 265.169C1288.07 266.286 1288.17 267.845 1288.25 269.089C1288.26 270.403 1288.57 271.698 1289.17 272.869C1289.27 273.028 1289.41 273.156 1289.58 273.236C1289.75 273.316 1289.94 273.345 1290.13 273.321C1290.32 273.296 1290.49 273.218 1290.64 273.097C1290.78 272.975 1290.89 272.815 1290.94 272.635V272.635Z" fill="white"/>
<path d="M1205.14 204.048C1204.82 205.211 1204.4 206.342 1203.87 207.427C1203.43 208.37 1202.98 209.253 1203.2 210.31C1203.26 210.508 1203.39 210.675 1203.57 210.777C1203.74 210.878 1203.95 210.905 1204.15 210.852C1206.51 210.063 1206.83 206.39 1207.06 204.309C1207.19 203.205 1205.42 203.011 1205.15 204.048L1205.14 204.048Z" fill="white"/>
<path d="M1221.78 264.48L1223.56 262.627C1223.82 262.353 1224.1 262.085 1224.34 261.791C1224.62 261.395 1224.87 260.984 1225.11 260.56C1225.24 260.334 1225.28 260.069 1225.23 259.814C1225.17 259.559 1225.03 259.332 1224.82 259.175C1224.62 259.02 1224.36 258.943 1224.1 258.957C1223.85 258.972 1223.6 259.077 1223.41 259.255C1223.11 259.489 1222.74 259.677 1222.48 259.924C1222.17 260.226 1221.89 260.548 1221.63 260.887L1220.03 262.727C1219 263.918 1220.7 265.644 1221.78 264.473L1221.78 264.48Z" fill="white"/>
<path d="M1149.72 221.035C1151.29 224.159 1153.31 227.517 1156.34 229.37C1157.12 229.845 1157.8 228.935 1157.49 228.22C1156.1 225.082 1153.48 222.433 1151.25 219.85C1150.49 218.967 1149.25 220.091 1149.72 221.035V221.035Z" fill="white"/>
<path d="M1154.21 276.06C1155.1 275.424 1155.86 274.62 1156.45 273.691C1156.69 273.258 1156.92 272.811 1157.12 272.353C1157.32 271.821 1157.42 271.257 1157.42 270.688C1157.42 270.529 1157.37 270.376 1157.28 270.245C1157.19 270.114 1157.07 270.012 1156.92 269.951C1156.78 269.89 1156.62 269.873 1156.46 269.901C1156.3 269.93 1156.16 270.003 1156.05 270.112C1155.74 270.406 1155.45 270.719 1155.18 271.049C1154.91 271.47 1154.67 271.899 1154.37 272.3C1153.8 273.043 1153.27 273.812 1152.71 274.554C1152.04 275.404 1153.34 276.682 1154.19 276.04L1154.21 276.06Z" fill="white"/>
<path d="M1325.88 200.202C1325.82 200.336 1325.78 200.47 1325.72 200.597C1325.28 201.594 1326.23 202.858 1327.32 202.196C1329.18 201.083 1330.6 199.38 1331.37 197.359C1331.4 197.235 1331.4 197.105 1331.37 196.981C1331.33 196.858 1331.27 196.745 1331.18 196.655C1331.09 196.564 1330.97 196.499 1330.85 196.465C1330.73 196.432 1330.6 196.431 1330.47 196.463C1330.02 196.601 1329.59 196.778 1329.17 196.991C1328.69 197.33 1328.25 197.705 1327.83 198.115C1326.98 198.812 1326.25 199.652 1325.69 200.597L1327.83 200.878L1327.79 200.463C1327.79 200.227 1327.7 199.999 1327.54 199.822C1327.38 199.646 1327.17 199.531 1326.93 199.5C1326.7 199.468 1326.46 199.522 1326.26 199.65C1326.06 199.779 1325.92 199.975 1325.85 200.202L1325.88 200.202Z" fill="white"/>
</g>
<g clip-path="url(#clip2)">
<path d="M122.608 305.509L-29.0005 305.509L-29.0005 174.177L122.608 174.177C140.022 174.179 156.723 181.098 169.037 193.411C181.35 205.725 188.269 222.426 188.271 239.84V239.84C188.271 257.256 181.352 273.959 169.037 286.275C156.721 298.59 140.018 305.509 122.602 305.509L122.608 305.509Z" fill="#4F4F4F"/>
<path d="M454.627 239.846C454.627 215.974 435.275 196.622 411.403 196.622C387.531 196.622 368.179 215.974 368.179 239.846C368.179 263.718 387.531 283.07 411.403 283.07C435.275 283.07 454.627 263.718 454.627 239.846Z" fill="#3D3D3D"/>
<path d="M187.568 125.501L187.568 354.186L369.831 239.847L187.568 125.501Z" fill="#7D7D7D"/>
<path d="M-28.6049 259.964C-15.633 270.802 -2.29315 281.231 10.9464 291.748L30.2938 307.135C36.7631 312.28 43.2055 317.953 50.2033 322.355C50.4332 322.493 50.7058 322.542 50.9696 322.493C51.2333 322.444 51.47 322.3 51.6347 322.088C51.7995 321.877 51.881 321.612 51.8638 321.344C51.8465 321.076 51.7318 320.824 51.5413 320.635C45.5203 314.788 38.4423 309.804 31.8526 304.66C25.263 299.515 18.4726 294.223 11.8294 289.012C-1.23613 278.816 -14.2616 268.494 -27.5412 258.612C-28.3239 258.024 -29.3542 259.348 -28.5915 259.95L-28.6049 259.964Z" fill="white"/>
<path d="M-27.2539 203.835C-6.88949 222.466 15.6959 238.422 37.7462 254.953C60.5725 272.059 81.7932 290.965 103.723 309.142C115.571 318.969 127.72 329.285 141.006 337.119C141.823 337.601 142.826 336.397 142.05 335.781C131.246 326.937 119.973 318.688 109.329 309.644C98.6854 300.599 88.0416 291.433 77.3309 282.409C56.2909 264.687 34.1403 248.611 11.8826 232.488C-1.20762 223.127 -13.7914 213.078 -25.8155 202.383C-26.7856 201.506 -28.2239 202.938 -27.2539 203.828L-27.2539 203.835Z" fill="white"/>
<path d="M74.9693 321.445C74.6013 321.445 70.3197 305.462 69.8314 303.877C67.9715 297.878 66.1184 291.875 64.272 285.867C60.6415 274.057 57.0735 262.238 53.568 250.41C46.6104 226.942 40.1634 203.333 34.2272 179.583C30.842 165.929 28.059 152.154 24.5601 138.5C24.1989 137.095 22.2454 137.724 22.4394 139.082C24.4464 152.776 27.7914 166.35 31.0294 179.791C34.2673 193.231 37.8465 206.664 41.5929 220.004C49.0946 246.711 57.1962 273.248 65.8976 299.615C68.1789 306.539 69.9116 314.072 72.9556 320.709C74.0461 323.084 77.3844 322.716 75.9661 320.328C75.8769 320.186 75.7456 320.077 75.5907 320.014C75.4358 319.952 75.2652 319.94 75.1031 319.98L74.7953 320.053C74.6257 320.101 74.4788 320.208 74.382 320.355C74.2851 320.502 74.2448 320.679 74.2685 320.854C74.2921 321.028 74.3782 321.188 74.5107 321.304C74.6432 321.42 74.8132 321.484 74.9894 321.485L74.9693 321.445Z" fill="white"/>
<path d="M52.9926 168.063C69.3497 184.588 85.7 201.166 103.308 216.372C120.033 230.802 138.096 243.446 155.53 257C165.398 264.687 174.724 272.902 183.896 281.392C184.113 281.609 184.408 281.731 184.715 281.731C185.023 281.731 185.318 281.609 185.535 281.392C185.752 281.175 185.874 280.88 185.874 280.572C185.874 280.265 185.752 279.97 185.535 279.753C171.312 263.383 152.948 250.779 135.628 237.967C117.202 224.428 99.6174 209.781 82.9705 194.108C73.357 185.029 63.991 175.743 54.625 166.431C54.5178 166.324 54.3906 166.24 54.2508 166.182C54.1109 166.124 53.9611 166.095 53.8098 166.095C53.6585 166.096 53.5088 166.126 53.3692 166.184C53.2295 166.242 53.1027 166.327 52.996 166.434C52.8892 166.542 52.8046 166.669 52.747 166.809C52.6894 166.948 52.6599 167.098 52.6603 167.25C52.6606 167.401 52.6907 167.551 52.7488 167.69C52.807 167.83 52.8921 167.957 52.9993 168.063L52.9926 168.063Z" fill="white"/>
<path d="M88.3487 158.55C121.598 181.744 153.971 206.049 186.344 230.461C187.394 231.25 188.792 229.464 187.762 228.621C156.319 202.978 123.063 179.429 89.1716 157.138C88.2818 156.556 87.4924 157.954 88.3487 158.55Z" fill="white"/>
</g>
</g>
<defs>
<clipPath id="clip0">
<rect width="1600" height="500" fill="white"/>
</clipPath>
<clipPath id="clip1">
<rect width="270" height="455" fill="white" transform="translate(1145 385) rotate(-90)"/>
</clipPath>
<clipPath id="clip2">
<rect width="262" height="455" fill="white" transform="translate(0 372) rotate(-90)"/>
</clipPath>
</defs>
</svg>
