<svg width="245" height="35" viewBox="0 0 245 35" fill="none" xmlns="http://www.w3.org/2000/svg">
<path d="M34.0281 17.7467C34.0281 8.35608 41.7751 0.778809 51.4747 0.778809C61.2394 0.778809 68.986 8.35608 68.986 17.7467C68.986 27.072 61.2394 34.7787 51.4747 34.7787C41.7751 34.7787 34.0281 27.0073 34.0281 17.7467ZM60.6536 17.7467C60.6536 13.0842 56.5521 8.93846 51.4747 8.93846C46.4619 8.93846 42.4261 13.0842 42.4261 17.7467C42.4261 22.4743 46.5271 26.6191 51.4747 26.6191C56.5521 26.6191 60.6536 22.4743 60.6536 17.7467Z" fill="white"/>
<path d="M209.295 18.005C209.295 7.70802 217.725 0.778809 225.369 0.778809C230.597 0.778809 233.603 2.33279 235.628 5.37752L236.412 1.36216H244.253V34.1316H236.412L235.432 30.7634C233.144 33.2247 230.269 34.7787 225.435 34.7787C217.79 34.7787 209.295 28.1731 209.295 18.005ZM235.955 17.9403C235.955 12.9548 231.837 8.93846 226.742 8.93846C221.711 8.93846 217.659 13.0195 217.659 18.0712C217.659 22.6037 221.776 26.6838 226.742 26.6838C231.903 26.6191 235.955 22.539 235.955 17.9403Z" fill="white"/>
<path d="M199.897 5.36341V1.60689H191.577V33.8207H199.897V16.4398C199.897 11.2198 202.437 8.48209 206.945 8.48209C207.262 8.48209 207.517 8.4821 207.771 8.54584L209.295 0.778809C204.977 0.842544 201.865 2.30652 199.897 5.36341Z" fill="white"/>
<path d="M114.912 5.36341V1.60689H106.337L106.403 33.8207H114.978L114.912 16.4398C114.912 11.2198 117.53 8.48209 122.113 8.48209C122.44 8.48209 122.701 8.4821 122.964 8.54584L124.535 0.778809C120.083 0.842544 116.876 2.30652 114.912 5.36341Z" fill="white"/>
<path d="M72.3381 21.3188V1.25757H80.7109V20.283C80.7109 24.489 83.0122 26.948 87.0387 26.948C91.5129 26.948 94.1338 24.166 94.1338 18.8598V1.25757H102.507V34.0013H94.1338V30.1844C92.1522 33.2899 88.9566 34.7783 84.5462 34.7783C77.004 34.843 72.3381 29.3427 72.3381 21.3188Z" fill="white"/>
<path d="M154.704 17.7149C154.704 8.53552 161.331 0.714498 171.725 0.779207C181.404 0.779207 188.225 8.53553 188.225 17.5846C188.225 18.49 188.16 19.4597 188.03 20.3004L163.02 20.2357C163.995 24.1785 167.242 26.9576 172.114 27.0223C175.102 27.0223 178.286 25.9233 180.235 23.4667L186.017 28.1214C183.028 32.3221 177.766 34.7786 172.18 34.7786C162.304 34.6497 154.704 27.2807 154.704 17.7149ZM179.716 14.3535C179.26 11.0562 175.753 8.47081 171.725 8.47081C167.762 8.47081 164.579 10.7979 163.344 14.2888L179.716 14.3535Z" fill="white"/>
<path d="M124.535 27.0516L132.087 23.1238C133.324 25.828 135.862 27.3732 139.377 27.3732C142.632 27.3732 143.87 26.3427 143.87 24.9264C143.87 19.7103 125.902 22.8665 125.902 10.8885C125.902 4.25656 131.761 0.778809 138.987 0.778809C144.455 0.778809 149.337 3.16136 152.007 7.66958L144.52 11.5974C143.414 9.40797 141.331 8.18434 138.661 8.18434C136.057 8.18434 134.821 9.08637 134.821 10.5669C134.821 15.6541 152.788 12.4337 152.788 24.6048C152.788 30.9152 147.581 34.7787 139.182 34.7787C132.022 34.7145 127.009 32.3962 124.535 27.0516Z" fill="white"/>
<path d="M0.986084 17.5715C0.986084 8.24905 8.6683 0.778809 18.2872 0.778809C24.4845 0.778809 29.8429 3.84446 32.9416 8.44025L25.7112 12.5914C24.0325 10.293 21.3858 8.76088 18.2872 8.76088C13.3163 8.76088 9.31383 12.8468 9.31383 17.5078C9.31383 22.1678 13.3808 26.2537 18.2872 26.2537C21.5149 26.2537 24.3554 24.5941 25.9049 22.1041L33.0705 26.3174C30.0365 31.1064 24.549 34.2995 18.2872 34.2995C8.6683 34.3632 0.986084 26.7018 0.986084 17.5715Z" fill="white"/>
</svg>
