<svg width="24" height="24" viewBox="0 0 24 24" fill="none" xmlns="http://www.w3.org/2000/svg">
<path d="M17.6568 16.2427L13.4142 12L17.6568 7.7574C17.8444 7.56986 17.9497 7.31551 17.9497 7.05029C17.9497 6.78508 17.8444 6.53072 17.6568 6.34319C17.4693 6.15565 17.2149 6.05029 16.9497 6.05029C16.6845 6.05029 16.4302 6.15565 16.2426 6.34319L12 10.5858L7.75734 6.34319C7.5698 6.15565 7.31545 6.05029 7.05023 6.05029C6.78502 6.05029 6.53066 6.15565 6.34313 6.34319C6.15559 6.53072 6.05023 6.78508 6.05023 7.05029C6.05023 7.31551 6.15559 7.56986 6.34313 7.7574L10.5858 12L6.34313 16.2427C6.15559 16.4302 6.05023 16.6846 6.05023 16.9498C6.05023 17.215 6.15559 17.4694 6.34313 17.6569C6.53066 17.8444 6.78502 17.9498 7.05023 17.9498C7.31545 17.9498 7.5698 17.8444 7.75734 17.6569L12 13.4143L16.2426 17.6569C16.4302 17.8444 16.6845 17.9498 16.9497 17.9498C17.2149 17.9498 17.4693 17.8444 17.6568 17.6569C17.8444 17.4694 17.9497 17.215 17.9497 16.9498C17.9497 16.6846 17.8444 16.4302 17.6568 16.2427Z" fill="white"/>
</svg>
