<svg width="146" height="37" viewBox="0 0 146 37" fill="none" xmlns="http://www.w3.org/2000/svg">
<path d="M32.3576 2.49877C31.3868 1.65126 30.2156 1.06566 28.9551 0.797474C27.2099 0.404171 25.4234 0.225033 23.6349 0.264018H0.898071V29.287H23.6349C25.4231 29.3188 27.2088 29.1397 28.9551 28.7535C30.2133 28.4788 31.3829 27.894 32.3576 27.0522C33.2266 26.2139 33.8455 25.1508 34.1455 23.9813C34.5227 22.4585 34.6972 20.8927 34.6645 19.3243V10.2123C34.6938 8.65356 34.5194 7.09768 34.1455 5.58418C33.8494 4.40891 33.2301 3.34007 32.3576 2.49877ZM28.2918 19.108C28.3123 19.8719 28.22 20.6347 28.0179 21.3716C27.8737 21.9252 27.5734 22.4257 27.1528 22.8134C26.7181 23.1819 26.1974 23.4348 25.639 23.5487C24.9046 23.705 24.1549 23.7776 23.4042 23.765H7.29956V5.84369H23.3754C24.17 5.82403 24.9641 5.9015 25.7399 6.07438C26.276 6.20673 26.7712 6.46919 27.1817 6.83852C27.5804 7.2319 27.856 7.73289 27.9746 8.2803C28.1727 9.00916 28.2793 9.75986 28.2918 10.5151V19.108Z" fill="#5C5C5C"/>
<path d="M47.9287 6.80957H41.5272V29.2725H47.9287V6.80957Z" fill="#5C5C5C"/>
<path d="M82.517 8.35226C81.6546 7.53949 80.5967 6.96338 79.4461 6.6798C77.8921 6.31481 76.2986 6.14529 74.7026 6.17518H64.5237C62.902 6.14146 61.2817 6.2914 59.6937 6.62212C58.5762 6.83101 57.5325 7.32798 56.666 8.0639C55.87 8.84756 55.3276 9.85208 55.1089 10.9475C54.7801 12.3943 54.63 13.8759 54.6619 15.3593V18.9349C54.6315 20.1559 54.8019 21.3736 55.1665 22.5393C55.4787 23.4716 56.0486 24.2965 56.8102 24.9183C57.6824 25.5901 58.6994 26.0492 59.7802 26.2591C61.2392 26.5718 62.729 26.7169 64.2209 26.6917H78.5377V28.566C78.5719 28.9066 78.5372 29.2507 78.4356 29.5776C78.3341 29.9046 78.1678 30.2078 77.9466 30.4691C77.3795 30.8926 76.6765 31.0927 75.9714 31.0314H67.2198V36.2218H76.5337C78.7377 36.4216 80.9384 35.806 82.7189 34.4917C83.4133 33.7466 83.9419 32.8628 84.27 31.8986C84.598 30.9344 84.718 29.9116 84.622 28.8976V15.417C84.6451 13.9934 84.4803 12.573 84.1318 11.1926C83.8661 10.1149 83.3072 9.13181 82.517 8.35226ZM78.5377 21.7031H64.5957C63.9924 21.7122 63.3894 21.6688 62.7935 21.5734C62.3739 21.5189 61.9761 21.3548 61.6401 21.0976C61.3364 20.8466 61.1153 20.51 61.0057 20.1316C60.865 19.6348 60.8018 19.1193 60.8183 18.6033V15.5756C60.696 14.4711 60.9777 13.3598 61.6113 12.4469C62.463 11.7985 63.5322 11.5041 64.5957 11.6251H74.4287C75.5573 11.51 76.6904 11.7958 77.6294 12.4325C77.9752 12.8645 78.2311 13.3613 78.3821 13.8936C78.5331 14.4259 78.5762 14.9831 78.5089 15.5323L78.5377 21.7031Z" fill="#5C5C5C"/>
<path d="M97.8721 6.80957H91.4706V29.2725H97.8721V6.80957Z" fill="#5C5C5C"/>
<path d="M129 14.2636L144.571 0.350464H135.877L124.372 10.6159L113.458 0.350464H104.274L119.802 14.3069L103.351 29.2869H112.247L123.997 18.2141L135.791 29.2869H145.076L129 14.2636Z" fill="#5C5C5C"/>
<path d="M54.3304 0.350464H47.929V6.82404H54.3304V0.350464Z" fill="#5C5C5C"/>
<path d="M104.274 0.350464H97.8721V6.82404H104.274V0.350464Z" fill="#5C5C5C"/>
</svg>
