<svg width="244" height="35" viewBox="0 0 244 35" fill="none" xmlns="http://www.w3.org/2000/svg">
<path d="M33.1948 17.5268C33.1948 8.13623 40.9419 0.55896 50.6414 0.55896C60.4061 0.55896 68.1527 8.13623 68.1527 17.5268C68.1527 26.8522 60.4061 34.5589 50.6414 34.5589C40.9419 34.5589 33.1948 26.7875 33.1948 17.5268ZM59.8204 17.5268C59.8204 12.8644 55.7189 8.71861 50.6414 8.71861C45.6287 8.71861 41.5929 12.8644 41.5929 17.5268C41.5929 22.2545 45.6939 26.3992 50.6414 26.3992C55.7189 26.3992 59.8204 22.2545 59.8204 17.5268Z" fill="white"/>
<path d="M208.462 17.7852C208.462 7.48817 216.892 0.55896 224.535 0.55896C229.764 0.55896 232.769 2.11295 234.794 5.15767L235.579 1.14232H243.42V33.9118H235.579L234.598 30.5435C232.311 33.0049 229.436 34.5589 224.602 34.5589C216.957 34.5589 208.462 27.9532 208.462 17.7852ZM235.122 17.7205C235.122 12.7349 231.004 8.71861 225.909 8.71861C220.878 8.71861 216.826 12.7997 216.826 17.8513C216.826 22.3839 220.943 26.4639 225.909 26.4639C231.069 26.3992 235.122 22.3192 235.122 17.7205Z" fill="white"/>
<path d="M199.064 5.14356V1.38704H190.743V33.6009H199.064V16.22C199.064 11 201.604 8.26224 206.112 8.26224C206.429 8.26224 206.684 8.26225 206.938 8.32599L208.462 0.55896C204.144 0.622696 201.032 2.08668 199.064 5.14356Z" fill="white"/>
<path d="M114.078 5.14356V1.38704H105.504L105.57 33.6009H114.145L114.078 16.22C114.078 11 116.697 8.26224 121.28 8.26224C121.606 8.26224 121.868 8.26225 122.131 8.32599L123.701 0.55896C119.25 0.622696 116.043 2.08668 114.078 5.14356Z" fill="white"/>
<path d="M71.5049 21.0989V1.03772H79.8776V20.0631C79.8776 24.2692 82.1789 26.7281 86.2055 26.7281C90.6796 26.7281 93.3006 23.9461 93.3006 18.64V1.03772H101.673V33.7814H93.3006V29.9645C91.3189 33.0701 88.1234 34.5584 83.713 34.5584C76.1707 34.6231 71.5049 29.1229 71.5049 21.0989Z" fill="white"/>
<path d="M153.871 17.4951C153.871 8.31567 160.498 0.49465 170.892 0.559359C180.571 0.559359 187.392 8.31568 187.392 17.3647C187.392 18.2701 187.327 19.2398 187.197 20.0805L162.186 20.0158C163.161 23.9587 166.409 26.7378 171.281 26.8025C174.269 26.8025 177.453 25.7034 179.401 23.2469L185.184 27.9016C182.195 32.1023 176.933 34.5588 171.346 34.5588C161.471 34.4299 153.871 27.0608 153.871 17.4951ZM178.882 14.1336C178.426 10.8364 174.919 8.25096 170.892 8.25096C166.929 8.25096 163.745 10.5781 162.511 14.0689L178.882 14.1336Z" fill="white"/>
<path d="M123.702 26.8318L131.254 22.904C132.49 25.6081 135.029 27.1534 138.544 27.1534C141.799 27.1534 143.036 26.1229 143.036 24.7066C143.036 19.4905 125.069 22.6466 125.069 10.6686C125.069 4.03671 130.928 0.55896 138.154 0.55896C143.622 0.55896 148.504 2.94151 151.173 7.44973L143.686 11.3775C142.581 9.18813 140.497 7.96449 137.828 7.96449C135.224 7.96449 133.987 8.86652 133.987 10.347C133.987 15.4342 151.955 12.2139 151.955 24.385C151.955 30.6953 146.747 34.5589 138.349 34.5589C131.188 34.4947 126.176 32.1763 123.702 26.8318Z" fill="white"/>
<path d="M0.152832 17.3517C0.152832 8.0292 7.83504 0.55896 17.4539 0.55896C23.6512 0.55896 29.0096 3.62461 32.1083 8.2204L24.878 12.3715C23.1993 10.0731 20.5526 8.54103 17.4539 8.54103C12.483 8.54103 8.48058 12.6269 8.48058 17.2879C8.48058 21.9479 12.5475 26.0338 17.4539 26.0338C20.6817 26.0338 23.5221 24.3743 25.0716 21.8842L32.2373 26.0976C29.2032 30.8865 23.7157 34.0796 17.4539 34.0796C7.83504 34.1434 0.152832 26.4819 0.152832 17.3517Z" fill="white"/>
</svg>
