<svg width="16" height="10" viewBox="0 0 16 10" fill="none" xmlns="http://www.w3.org/2000/svg">
<path d="M9 4.5H15C15.1326 4.5 15.2598 4.55268 15.3536 4.64645C15.4473 4.74021 15.5 4.86739 15.5 5C15.5 5.13261 15.4473 5.25979 15.3536 5.35355C15.2598 5.44732 15.1326 5.5 15 5.5H1C0.867392 5.5 0.740215 5.44732 0.646447 5.35355C0.552679 5.25979 0.5 5.13261 0.5 5C0.5 4.86739 0.552678 4.74022 0.646447 4.64645C0.740215 4.55268 0.867392 4.5 1 4.5H9Z" fill="black" stroke="black"/>
<path d="M9 8.5H15C15.1326 8.5 15.2598 8.55268 15.3536 8.64645C15.4473 8.74021 15.5 8.86739 15.5 9C15.5 9.13261 15.4473 9.25979 15.3536 9.35355C15.2598 9.44732 15.1326 9.5 15 9.5H1C0.867392 9.5 0.740215 9.44732 0.646447 9.35355C0.552679 9.25979 0.5 9.13261 0.5 9C0.5 8.86739 0.552678 8.74022 0.646447 8.64645C0.740215 8.55268 0.867392 8.5 1 8.5H9Z" fill="black" stroke="black"/>
<path d="M9 0.5H15C15.1326 0.5 15.2598 0.552679 15.3536 0.646447C15.4473 0.740214 15.5 0.867391 15.5 1C15.5 1.13261 15.4473 1.25979 15.3536 1.35355C15.2598 1.44732 15.1326 1.5 15 1.5H1C0.867392 1.5 0.740215 1.44732 0.646447 1.35355C0.552679 1.25979 0.5 1.13261 0.5 1C0.5 0.867392 0.552678 0.740215 0.646447 0.646447C0.740215 0.552678 0.867392 0.5 1 0.5H9Z" fill="black" stroke="black"/> 
</svg>
