<svg width="116" height="35" viewBox="0 0 116 35" fill="none" xmlns="http://www.w3.org/2000/svg">
<path d="M98.7077 34.7776C93.0241 34.8151 91.0959 34.0101 88.642 32.0996C86.188 30.1891 85.0465 27.1441 84.842 23.2652H92.6066C92.9513 27.2573 95.1657 28.8088 98.8784 28.7863C101.765 28.7776 104.356 28.0942 104.051 25.1922C103.849 22.171 99.2645 22.6669 93.3142 20.148C89.1447 18.9071 85.1521 15.5965 85.4972 10.4299C86.0226 3.40718 92.3358 0.805071 98.2626 0.778816C105.334 0.77315 110.736 4.23841 110.831 11.4871L103.188 11.3809C103.153 7.10651 98.4224 7.09285 97.8377 7.08497C94.7638 6.98428 93.2425 8.64804 93.3161 9.97896C93.3462 12.5102 96.4558 13.1959 99.4975 14.1691C105.212 15.9838 111.917 17.0664 111.955 24.7181C111.896 27.7674 111.055 30.0205 108.504 32.0632C106.535 33.6022 103.189 34.7544 98.7077 34.7776Z" fill="white"/>
<path d="M0.15918 2.16345H8.44432V34.2724H0.15918V2.16345Z" fill="white"/>
<path d="M11.9495 2.16345H36.6987V8.69791H19.9977V14.7132H36.6987V21.0864H19.9977V27.672H36.6987V34.2724H11.9495V2.16345Z" fill="white"/>
<path d="M39.8853 2.16345H48.0642V27.3746H63.1474V34.2724H39.8853V2.16345Z" fill="white"/>
<path d="M57.1392 2.16345H83.8027V8.69791H74.5643V34.2724H66.4151V8.69791H57.1392V2.16345Z" fill="white"/>
<path d="M110.03 5.897V2.71239H108.95V2.06396H111.842V2.71239H110.764V5.897H110.03Z" fill="white"/>
<path d="M112.309 5.897V2.06396H113.408L114.069 4.67859L114.722 2.06396H115.824V5.897H115.141V2.87973L114.419 5.897H113.711L112.991 2.87973V5.897H112.309Z" fill="white"/>
</svg>
