<svg width="1108" height="731" viewBox="0 0 1108 731" fill="none" xmlns="http://www.w3.org/2000/svg">
<path d="M1011.53 681.344C977.169 655.108 964.719 611.5 962.701 569.938C960.315 524.304 968.641 478.436 963.079 432.846C961.093 416.623 957.247 400.536 950.84 385.613C978.768 349.422 990.097 300.143 979.695 255.437C964.274 189.581 899.735 146.427 833.786 146.164C759.69 145.804 708.201 202.708 679.989 265.844C646.626 340.802 641.718 425.34 604.34 498.678C585.141 536.247 556.938 567.884 519.678 587.912C483.507 607.487 441.422 615.57 400.599 609.566C359.103 603.597 319.671 583.699 289.985 554.046C258.527 522.378 241.945 480.294 217.653 443.531C196.942 412.304 167.668 381.398 128.834 375.451C95.8095 370.476 61.2527 384.367 38.9568 408.829C28.1597 420.546 20.5474 434.72 16.8531 450.162C16.2835 452.217 19.4935 452.847 20.063 450.792C28.6537 415.476 58.9586 388.418 94.0505 380.298C135.134 370.519 172.005 391.581 198.135 422.371C224.136 452.969 239.579 490.663 261.901 523.873C283.03 555.515 311.417 580.747 346.119 596.718C411.41 626.685 488.615 617.989 546.027 575.079C608.91 528.074 630.201 450.082 648.433 377.49C665.844 308.237 685.439 231.246 742.512 183.269C768.889 160.94 801.785 148.723 836.332 149.33C869.372 149.975 902.293 161.429 928.319 181.698C983.877 224.757 994.178 302.277 961.819 362.766C958.188 369.387 954.075 375.914 949.382 381.994C940.973 363.679 928.628 347.592 911.294 335.693C884.217 317.384 847.859 313.256 822.061 336.032C800.514 354.974 790.601 388.53 809.874 412.642C833.981 442.702 876.915 438.786 907.453 422.44C923.458 413.911 937.27 402.119 948.508 388.156C951.129 394.337 953.238 400.583 954.994 406.928C975.592 484.633 939.703 569.929 977.48 644.169C985.172 659.344 995.872 672.775 1009.51 683.116C1010.99 684.906 1013.13 682.492 1011.53 681.344ZM884.351 428.911C864.166 434.953 841.87 433.915 824.054 421.922C808.297 411.333 799.762 393.66 803.092 374.979C809.086 340.154 843.998 318.499 877.832 325.299C910.221 331.816 933.729 356.425 946.893 385.339C930.772 405.512 909.309 421.471 884.351 428.911Z" fill="#356EE1"/>
</svg>
