<svg width="193" height="37" viewBox="0 0 193 37" fill="none" xmlns="http://www.w3.org/2000/svg">
<path d="M187.606 4.37244V5.18626H186.647V8.21504H185.779V5.18626H184.82V4.37244H187.606Z" fill="#5C5C5C"/>
<path d="M191.309 4.3717H192.412V8.2143H191.545V5.84833L190.551 8.2143H189.962L188.968 5.85672V8.2143H188.101V4.3717H189.221L190.265 6.86351L191.309 4.3717Z" fill="#5C5C5C"/>
<path d="M0.898071 5.92466C0.898071 5.70652 0.906488 5.50516 0.914907 5.32898C0.923326 5.15279 0.982264 4.99338 1.07488 4.86753C1.16749 4.74168 1.31904 4.641 1.52952 4.56549C1.73159 4.49837 2.02626 4.45642 2.39671 4.45642H7.00209C7.24625 4.45642 7.44832 4.49837 7.60829 4.58227C7.76825 4.66617 7.89454 4.77524 7.99557 4.90109C8.08819 5.02694 8.15554 5.16957 8.18922 5.31219C8.22289 5.46321 8.23974 5.59745 8.23974 5.7233L8.24815 19.9275L15.1773 12.2423C15.514 11.8731 15.9098 11.6885 16.3728 11.6885H22.2832C22.9904 11.6885 23.344 11.9654 23.344 12.5108C23.344 12.6534 23.3188 12.7708 23.2767 12.8547C23.2346 12.947 23.142 13.0729 22.9988 13.2407L15.0847 21.5803L25.0532 34.3246H25.0111C25.1794 34.4924 25.2973 34.6602 25.3647 34.8364C25.432 35.0126 25.4741 35.1636 25.4741 35.3062C25.4741 35.5999 25.3983 35.8012 25.23 35.9103C25.07 36.0194 24.8258 36.0697 24.5059 36.0697H17.9977C17.7788 36.0697 17.5768 35.9858 17.3831 35.818C17.1895 35.6502 16.979 35.3985 16.7433 35.0713L10.4372 26.1864L8.29867 28.3929V34.5931C8.29867 34.6938 8.28183 34.828 8.24815 34.9958C8.21447 35.1636 8.15554 35.323 8.05451 35.4824C7.9619 35.6418 7.82719 35.7761 7.6588 35.8935C7.49041 36.011 7.27151 36.0697 7.00209 36.0697H2.16939C1.94206 36.0697 1.74 36.011 1.57161 35.8851C1.40323 35.7677 1.27694 35.625 1.1759 35.474C1.08329 35.323 1.00752 35.1804 0.965421 35.0461C0.923324 34.9119 0.898071 34.828 0.898071 34.8028V5.92466Z" fill="#5C5C5C"/>
<path d="M28.6321 12.0311C28.8005 11.8885 28.9773 11.8046 29.1625 11.7627C29.3478 11.7207 29.5246 11.7039 29.693 11.7039H32.606C32.8334 11.7039 33.0354 11.7459 33.2038 11.8298C33.3722 11.9137 33.5153 12.0227 33.6248 12.1654C33.7427 12.308 33.8353 12.4674 33.9026 12.6436C33.97 12.8198 34.0373 13.0044 34.1047 13.1973L34.5088 14.8837C34.7025 14.4894 35.014 14.0783 35.4434 13.6588C35.8728 13.2393 36.4032 12.8534 37.043 12.5094C37.6829 12.1654 38.4154 11.8801 39.2489 11.6536C40.0824 11.4271 41.017 11.318 42.0441 11.318C43.5091 11.318 44.8141 11.5949 45.9675 12.157C47.121 12.7191 48.0976 13.4826 48.8975 14.4558C49.6973 15.4291 50.3119 16.5617 50.7329 17.8538C51.1539 19.1542 51.3643 20.5385 51.3643 22.0068L51.3728 34.5833C51.3728 35.0699 51.2633 35.4391 51.0528 35.6908C50.8423 35.9425 50.5056 36.0683 50.0425 36.0683H45.5887C45.033 36.0683 44.6541 35.976 44.4521 35.7914C44.25 35.6069 44.1405 35.2461 44.1405 34.7091L44.1321 22.2081C44.1321 21.6544 44.0058 21.1342 43.7533 20.6476C43.5007 20.1526 43.1723 19.7163 42.7598 19.3388C42.3472 18.9612 41.8842 18.6676 41.3622 18.4494C40.8402 18.2313 40.3097 18.1222 39.7709 18.1222C39.3078 18.1222 38.8364 18.2229 38.3565 18.4327C37.8766 18.634 37.4303 18.9193 37.0262 19.2884C36.6221 19.6492 36.2853 20.0855 36.0075 20.5721C35.7296 21.0671 35.5781 21.5957 35.536 22.1746L35.5444 34.6504C35.5444 34.8686 35.5023 35.0867 35.4181 35.3048C35.3339 35.523 35.2076 35.6908 35.0392 35.8082C34.8709 35.9089 34.7109 35.9844 34.5678 36.018C34.4162 36.0599 34.2478 36.0767 34.0542 36.0767H29.7014C29.1457 36.0767 28.75 35.9425 28.5058 35.674C28.2617 35.4055 28.1354 35.0447 28.1354 34.6001L28.127 13.1302C28.127 12.8869 28.1775 12.6604 28.2869 12.459C28.3964 12.2577 28.5479 12.0983 28.7416 11.9808L28.6321 12.0311Z" fill="#5C5C5C"/>
<path d="M79.5051 18.9072C78.8484 17.3802 77.9391 16.0462 76.8025 14.9136C75.6659 13.781 74.3272 12.8916 72.7949 12.2456C71.2542 11.5996 69.6208 11.2808 67.8696 11.2808C66.6909 11.2808 65.5543 11.4318 64.4682 11.7254C63.3821 12.0275 62.3718 12.4386 61.4372 12.9755C60.4943 13.5125 59.6523 14.1669 58.8862 14.922C58.12 15.6855 57.4633 16.5329 56.9245 17.4558C56.3772 18.387 55.9562 19.3938 55.6531 20.4761C55.35 21.5668 55.1985 22.6995 55.1985 23.8741C55.1985 25.057 55.35 26.1813 55.6531 27.2636C55.9562 28.3459 56.3856 29.3527 56.9245 30.284C57.4717 31.2236 58.1284 32.071 58.8946 32.8261C59.6607 33.5896 60.5111 34.244 61.4456 34.781C62.3886 35.3263 63.3989 35.7458 64.4766 36.0395C65.5627 36.3331 66.6993 36.4757 67.878 36.4757C69.0483 36.4757 70.1681 36.3331 71.2373 36.0311C72.315 35.7374 73.3169 35.3179 74.2515 34.7726C75.1944 34.2272 76.0364 33.5728 76.8025 32.8093C77.5687 32.0542 78.2254 31.1985 78.7642 30.2672C79.3115 29.3359 79.7324 28.3291 80.0355 27.2468C80.3386 26.1645 80.4902 25.0403 80.4902 23.8573C80.4986 22.0954 80.1702 20.4426 79.5051 18.9072ZM67.8612 30.0239C64.4598 30.0239 61.7066 27.2804 61.7066 23.8908C61.7066 21.1389 63.5252 18.8065 66.0342 18.0263C66.1268 18.0011 66.2194 17.9675 66.312 17.9424C66.413 17.9172 66.5057 17.892 66.6067 17.8752C66.893 17.8081 67.1876 17.7746 67.4991 17.7578C67.617 17.7494 67.7265 17.7494 67.8443 17.7494C68.0548 17.7494 68.2653 17.7578 68.4758 17.783C71.5741 18.0934 73.9989 20.7027 74.0073 23.8824C74.0157 27.272 71.2626 30.0155 67.8612 30.0239Z" fill="#5C5C5C"/>
<path d="M81.6437 13.5608C81.3827 13.0323 81.3406 12.5876 81.5006 12.2184C81.6605 11.8493 82.0394 11.6647 82.6456 11.6647H87.5793C87.9161 11.6647 88.2024 11.757 88.4549 11.9332C88.7075 12.1094 88.8843 12.3695 88.9854 12.6967C89.2043 13.3762 89.4484 14.1313 89.7094 14.9703C89.9704 15.8093 90.2483 16.6651 90.543 17.5293C90.8292 18.4018 91.1155 19.266 91.4017 20.1217C91.688 20.9775 91.949 21.7662 92.1847 22.4961C92.4205 23.2176 92.6309 23.8469 92.8246 24.3838C93.0098 24.9208 93.1529 25.3067 93.2371 25.5333L97.3121 12.6883C97.4805 12.2772 97.6657 12.0003 97.8762 11.8661C98.0867 11.7234 98.3898 11.6563 98.7686 11.6563H103.332C103.702 11.6563 103.989 11.6983 104.182 11.7905C104.376 11.8828 104.502 12.0003 104.57 12.1513C104.637 12.3023 104.645 12.4785 104.612 12.6799C104.57 12.8812 104.511 13.0826 104.418 13.3007L102.296 18.4605C102.389 18.6787 102.557 19.0478 102.818 19.568C103.079 20.0882 103.366 20.6755 103.694 21.3299C104.022 21.9927 104.359 22.6807 104.696 23.4022C105.033 24.1237 105.319 24.8033 105.555 25.4242L110.269 12.6715C110.438 12.2604 110.606 11.9835 110.783 11.8493C110.96 11.7066 111.212 11.6395 111.566 11.6395H115.826C116.441 11.6395 116.87 11.757 117.098 11.9835C117.325 12.21 117.342 12.6463 117.14 13.2923L108.114 35.1985C107.996 35.425 107.819 35.6263 107.584 35.7858C107.348 35.9452 107.003 36.0291 106.557 36.0291H104.536C104.039 36.0291 103.669 35.9536 103.441 35.7858C103.214 35.6263 103.02 35.4166 102.886 35.1649L99.2991 26.4478L95.7798 35.2069C95.6367 35.4334 95.4683 35.6347 95.283 35.7941C95.0894 35.9536 94.8031 36.0375 94.4158 36.0375H92.1258C91.6122 36.0375 91.2502 35.9619 91.0397 35.8193C90.8292 35.6767 90.6692 35.4669 90.5682 35.2152L81.6437 13.5608Z" fill="#5C5C5C"/>
<path d="M144.784 18.8693C144.187 17.3424 143.353 16.0084 142.301 14.8757C141.24 13.7431 139.977 12.8537 138.504 12.2077C137.03 11.5617 135.422 11.2429 133.679 11.2429C132.972 11.2429 132.332 11.31 131.751 11.4359C131.17 11.5617 130.64 11.7463 130.16 11.9644C129.68 12.1909 129.234 12.4678 128.821 12.7782C128.409 13.0971 128.03 13.4494 127.668 13.8354L127.659 5.84815C127.659 5.43705 127.516 5.09306 127.238 4.8078C126.952 4.53093 126.565 4.38831 126.085 4.38831H121.715C121.547 4.38831 121.379 4.43026 121.202 4.49738C121.025 4.57289 120.873 4.67356 120.739 4.79102C120.604 4.91687 120.495 5.07628 120.41 5.25247C120.326 5.43705 120.284 5.63002 120.284 5.84815L120.301 34.525C120.301 35.515 120.814 36.0016 121.842 36.0016H125.656C125.9 36.0016 126.093 35.9764 126.237 35.9093C126.38 35.8506 126.498 35.7583 126.59 35.6324C126.683 35.515 126.775 35.3556 126.851 35.171C126.927 34.9864 127.028 34.7766 127.137 34.525L127.483 33.6021C127.828 33.946 128.223 34.29 128.67 34.6256C129.116 34.9696 129.596 35.2717 130.126 35.5401C130.648 35.8086 131.212 36.0267 131.81 36.1945C132.408 36.3623 133.031 36.4462 133.688 36.4462C135.439 36.4462 137.047 36.119 138.512 35.4646C139.977 34.8102 141.248 33.9209 142.309 32.7882C143.37 31.6556 144.195 30.3216 144.793 28.7862C145.391 27.2509 145.685 25.5981 145.685 23.8362C145.677 22.0575 145.382 20.3963 144.784 18.8693ZM133.284 29.9189C132.324 29.9189 131.423 29.7007 130.615 29.3148C130.522 29.2729 130.438 29.2309 130.345 29.1806C129.84 28.9205 129.385 28.5933 128.973 28.1989C128.434 27.6788 127.996 27.0747 127.668 26.3699C127.339 25.6736 127.154 24.9101 127.121 24.1047V23.7858C127.121 23.7019 127.121 23.618 127.129 23.5341C127.137 23.4335 127.137 23.3328 127.146 23.2321C127.424 20.1027 130.059 17.6528 133.267 17.6528C136.668 17.6528 139.421 20.3963 139.421 23.7858C139.438 27.1754 136.685 29.9189 133.284 29.9189Z" fill="#5C5C5C"/>
<path d="M149.538 13.1269C149.538 12.7158 149.656 12.3634 149.884 12.0698C150.111 11.7761 150.473 11.6251 150.961 11.6251H155.373C155.525 11.6251 155.693 11.6587 155.878 11.7342C156.055 11.8013 156.223 11.9104 156.383 12.0446C156.535 12.1789 156.67 12.3383 156.779 12.5145C156.888 12.6906 156.939 12.9004 156.947 13.1269L156.956 34.5297C156.956 35.0163 156.821 35.3854 156.552 35.6371C156.282 35.8888 155.895 36.0147 155.398 36.0147H150.986C150.035 36.0147 149.564 35.5197 149.564 34.538L149.538 13.1269Z" fill="#5C5C5C"/>
<path d="M182.081 33.0762C180.953 34.1165 179.682 34.9219 178.268 35.5092C176.853 36.0881 175.363 36.3818 173.78 36.3818C172.02 36.3818 170.353 36.063 168.787 35.4253C167.221 34.7877 165.849 33.8984 164.662 32.7657C163.483 31.6331 162.54 30.2991 161.85 28.7637C161.159 27.2284 160.806 25.5588 160.806 23.7549C160.806 22.6307 160.941 21.54 161.218 20.4829C161.496 19.4257 161.883 18.4357 162.389 17.5128C162.894 16.5899 163.508 15.7425 164.232 14.9707C164.957 14.1988 165.773 13.536 166.666 12.9823C167.567 12.4285 168.543 12.0006 169.596 11.6902C170.648 11.3798 171.759 11.2288 172.93 11.2288C173.999 11.2288 175.026 11.3714 176.028 11.6483C177.03 11.9335 177.973 12.3278 178.848 12.8396C179.724 13.3514 180.532 13.9639 181.265 14.6854C181.997 15.3986 182.629 16.1872 183.151 17.0346C183.681 17.882 184.085 18.7965 184.372 19.7613C184.658 20.7262 184.809 21.7246 184.809 22.7481C184.809 23.4109 184.801 23.9563 184.784 24.3758C184.767 24.7953 184.666 25.1309 184.489 25.3826C184.313 25.6343 184.009 25.8021 183.597 25.9028C183.176 25.995 182.57 26.0454 181.762 26.0454L167.895 26.0538C168.021 26.876 168.282 27.5556 168.678 28.1093C169.074 28.663 169.52 29.0993 170.033 29.4265C170.547 29.7537 171.094 29.9887 171.675 30.1229C172.256 30.2655 172.795 30.3326 173.317 30.3326C173.78 30.3326 174.251 30.2823 174.74 30.19C175.228 30.0977 175.7 29.9635 176.154 29.8041C176.609 29.6447 177.03 29.4601 177.409 29.2503C177.788 29.0406 178.091 28.8141 178.326 28.5875C178.529 28.4197 178.705 28.2939 178.857 28.21C179.008 28.1261 179.16 28.0841 179.328 28.0841C179.497 28.0841 179.665 28.1429 179.842 28.2603C180.019 28.3778 180.212 28.5456 180.431 28.7553L182.477 31.0542C182.62 31.222 182.705 31.373 182.747 31.5072C182.789 31.6415 182.806 31.7757 182.806 31.9183C182.806 32.1784 182.738 32.3966 182.595 32.5811C182.443 32.7741 182.275 32.9335 182.081 33.0762ZM172.803 17.0933C172.307 17.0933 171.818 17.194 171.347 17.3954C170.875 17.5967 170.438 17.8568 170.025 18.1924C169.612 18.528 169.242 18.9056 168.922 19.325C168.594 19.7445 168.324 20.1724 168.122 20.6087L177.973 20.6003C177.703 20.1053 177.409 19.6439 177.097 19.216C176.786 18.7965 176.424 18.4189 176.02 18.1001C175.615 17.7813 175.152 17.5296 174.63 17.3534C174.108 17.1772 173.502 17.0933 172.803 17.0933Z" fill="#5C5C5C"/>
<path d="M151.266 0.475952C154.44 0.475952 157.008 3.03489 157.008 6.1895C157.008 7.17113 156.216 7.95978 155.231 7.95978H151.266C150.281 7.95978 149.489 7.17113 149.489 6.1895V2.23784C149.489 1.273 150.281 0.475952 151.266 0.475952Z" fill="#5C5C5C"/>
</svg>
