<svg width="144" height="36" viewBox="0 0 144 36" fill="none" xmlns="http://www.w3.org/2000/svg">
<path d="M7.93656 34.4767V20.9187C7.93656 20.0271 8.11334 19.2278 8.46689 18.5207C8.82045 17.8135 9.29697 17.2602 9.89648 16.8605C10.496 16.4608 11.1954 16.261 11.9948 16.261C13.1323 16.261 14.0238 16.6837 14.6695 17.5292C15.3151 18.3746 15.6379 19.5352 15.6379 21.0109V34.4767C15.6379 34.6295 15.7618 34.7534 15.9146 34.7534H22.8781C23.0309 34.7534 23.1548 34.6295 23.1548 34.4767V20.9187C23.1548 20.0271 23.3316 19.2278 23.6851 18.5207C24.0387 17.8135 24.5152 17.2602 25.1147 16.8605C25.7142 16.4608 26.4136 16.261 27.213 16.261C28.3505 16.261 29.2421 16.6837 29.8877 17.5292C30.5333 18.3746 30.8561 19.5352 30.8561 21.0109V34.4767C30.8561 34.6295 30.98 34.7534 31.1328 34.7534H38.0963C38.2491 34.7534 38.373 34.6295 38.373 34.4767V20.0886C38.373 17.9058 38.0194 16.0227 37.3123 14.4394C36.6052 12.8561 35.5907 11.634 34.2687 10.7732C32.9467 9.91237 31.3941 9.48195 29.611 9.48195C27.8279 9.48195 26.2445 9.897 24.8611 10.7271C23.4776 11.5572 22.4016 12.6332 21.633 13.9552C20.9258 12.541 19.9497 11.4419 18.7046 10.6579C17.4595 9.87394 16.0376 9.48195 14.4389 9.48195C12.9324 9.48195 11.5797 9.83551 10.3807 10.5426C9.18168 11.2497 8.244 12.2028 7.56763 13.4018V10.4504C7.56763 10.2976 7.44375 10.1737 7.29094 10.1737H0.696373C0.543558 10.1737 0.419678 10.2976 0.419678 10.4504V34.4767C0.419678 34.6295 0.543558 34.7534 0.696373 34.7534H7.65986C7.81268 34.7534 7.93656 34.6295 7.93656 34.4767ZM53.8679 35.4452C55.7433 35.4452 57.488 35.1147 59.1021 34.4537C60.7161 33.7927 62.115 32.878 63.2986 31.7098C64.4822 30.5415 65.4046 29.1657 66.0656 27.5824C66.7266 25.9991 67.0571 24.2851 67.0571 22.4405C67.0571 20.5959 66.7342 18.8896 66.0886 17.3216C65.443 15.7537 64.5284 14.3779 63.3447 13.1943C62.1611 12.0106 60.7776 11.096 59.1943 10.4504C57.611 9.80477 55.897 9.48195 54.0524 9.48195C52.177 9.48195 50.4323 9.81245 48.8182 10.4734C47.2042 11.1344 45.8053 12.0568 44.6217 13.2404C43.4381 14.424 42.5157 15.8075 41.8547 17.3908C41.1938 18.9741 40.8633 20.6881 40.8633 22.5327C40.8633 24.3774 41.1861 26.0837 41.8317 27.6516C42.4773 29.2195 43.3919 30.5876 44.5756 31.7559C45.7592 32.9242 47.1427 33.8311 48.726 34.4767C50.3093 35.1224 52.0233 35.4452 53.8679 35.4452ZM53.9602 28.6661C52.9456 28.6661 52.0233 28.3971 51.1932 27.8591C50.3631 27.3211 49.7098 26.5832 49.2333 25.6456C48.7568 24.7079 48.5185 23.6549 48.5185 22.4866C48.5185 21.2876 48.7568 20.2193 49.2333 19.2816C49.7098 18.3439 50.3631 17.606 51.1932 17.068C52.0233 16.53 52.9456 16.261 53.9602 16.261C54.9747 16.261 55.897 16.53 56.7271 17.068C57.5572 17.606 58.2105 18.3439 58.687 19.2816C59.1636 20.2193 59.4018 21.2876 59.4018 22.4866C59.4018 23.6549 59.1636 24.7079 58.687 25.6456C58.2105 26.5832 57.5572 27.3211 56.7271 27.8591C55.897 28.3971 54.9747 28.6661 53.9602 28.6661ZM77.0642 34.4767V22.6711L85.4669 34.6358C85.5187 34.7095 85.6032 34.7534 85.6933 34.7534H94.2575C94.4104 34.7534 94.5342 34.6295 94.5342 34.4767C94.5342 34.4158 94.5141 34.3566 94.477 34.3082L84.3044 21.057L93.3164 10.6313C93.4163 10.5157 93.4036 10.341 93.288 10.2411C93.2378 10.1976 93.1735 10.1737 93.1071 10.1737H85.3109C85.2284 10.1737 85.1501 10.2105 85.0976 10.2741L77.0642 19.9964V0.535484C77.0642 0.38267 76.9403 0.258789 76.7875 0.258789H69.824C69.6712 0.258789 69.5473 0.38267 69.5473 0.535484V34.4767C69.5473 34.6295 69.6712 34.7534 69.824 34.7534H76.7875C76.9403 34.7534 77.0642 34.6295 77.0642 34.4767ZM106.256 35.4452C108.008 35.4452 109.653 35.1608 111.19 34.592C112.727 34.0233 114.072 33.2239 115.225 32.194C116.34 31.198 117.189 30.0224 117.772 28.667C117.8 28.601 117.77 28.5245 117.704 28.4962C117.698 28.4936 117.692 28.4915 117.685 28.4898L111.082 26.7614C111.008 26.7421 110.93 26.7692 110.884 26.83C110.318 27.5792 109.675 28.1451 108.953 28.5278C108.2 28.9275 107.332 29.1273 106.348 29.1273C105.026 29.1273 103.934 28.7199 103.074 27.9052C102.213 27.0905 101.629 25.9299 101.321 24.4235H118.015C118.168 24.4235 118.292 24.2996 118.292 24.1468V22.7633C118.292 20.765 118 18.9511 117.416 17.3216C116.831 15.6922 116.001 14.2934 114.925 13.1251C113.849 11.9568 112.558 11.0576 111.052 10.4273C109.545 9.79708 107.87 9.48195 106.025 9.48195C104.273 9.48195 102.643 9.80477 101.137 10.4504C99.6302 11.096 98.3159 12.003 97.1937 13.1712C96.0716 14.3395 95.1954 15.7076 94.5651 17.2755C93.9349 18.8435 93.6198 20.5498 93.6198 22.3944C93.6198 24.3005 93.9272 26.0529 94.5421 27.6516C95.157 29.2503 96.0332 30.6337 97.1707 31.802C98.3082 32.9703 99.6456 33.8695 101.183 34.4998C102.72 35.13 104.411 35.4452 106.256 35.4452ZM110.544 19.6274H101.321C101.598 18.1825 102.144 17.068 102.958 16.284C103.773 15.5001 104.795 15.1081 106.025 15.1081C107.224 15.1081 108.215 15.5001 108.999 16.284C109.783 17.068 110.298 18.1825 110.544 19.6274ZM128.068 34.4767V20.8264C128.068 19.9656 128.253 19.1893 128.622 18.4976C128.991 17.8059 129.49 17.2602 130.12 16.8605C130.751 16.4608 131.481 16.261 132.311 16.261C133.479 16.261 134.394 16.6837 135.055 17.5292C135.716 18.3746 136.046 19.5198 136.046 20.9648V34.4767C136.046 34.6295 136.17 34.7534 136.323 34.7534H143.287C143.439 34.7534 143.563 34.6295 143.563 34.4767V19.9041C143.563 17.7828 143.202 15.9459 142.479 14.3933C141.757 12.8407 140.742 11.634 139.436 10.7732C138.129 9.91237 136.6 9.48195 134.847 9.48195C133.249 9.48195 131.834 9.83551 130.605 10.5426C129.375 11.2497 128.406 12.2028 127.699 13.4018V10.4504C127.699 10.2976 127.575 10.1737 127.423 10.1737H120.828C120.675 10.1737 120.551 10.2976 120.551 10.4504V34.4767C120.551 34.6295 120.675 34.7534 120.828 34.7534H127.792C127.944 34.7534 128.068 34.6295 128.068 34.4767Z" fill="#5C5C5C"/>
</svg>
