<svg width="126" height="56" viewBox="0 0 126 56" fill="none" xmlns="http://www.w3.org/2000/svg">
<path d="M0.844727 36.7021C1.34794 35.0644 1.58964 33.3692 1.93375 31.6975C3.68494 23.19 5.42363 14.6799 7.14981 6.16732C7.46162 4.6385 7.78483 3.11169 8.0685 1.57765C8.16377 1.06244 8.34137 0.84488 8.922 0.858511C10.7994 0.902587 12.6789 0.896556 14.5567 0.862432C15.1646 0.851383 15.2945 0.985433 15.1685 1.60571C13.0239 12.1566 10.8935 22.7104 8.77723 33.2671C8.67416 33.7775 8.64174 34.2996 8.68088 34.8188C8.80525 36.5052 9.6649 37.3129 11.3462 37.3134C17.9468 37.3151 24.5474 37.3066 31.1479 37.3275C31.7047 37.3292 31.9044 37.1646 32.0085 36.6239C32.9433 31.772 33.9107 26.9264 34.8571 22.0767C34.9432 21.6351 35.0904 21.422 35.6058 21.4312C37.5358 21.4655 39.4669 21.4585 41.3973 21.4357C41.9232 21.4295 42.0538 21.5373 41.9305 22.0951C41.2797 25.0403 40.6378 27.9887 40.0746 30.9515C39.7753 32.5259 39.752 34.1257 40.6086 35.5836C41.6941 37.431 43.4157 37.9598 45.4285 37.7943C47.3664 37.6349 48.6648 36.583 49.3645 34.8048C49.9586 33.295 50.1404 31.6787 50.474 30.1037C51.0344 27.4579 51.5612 24.8048 52.0768 22.1499C52.1774 21.6314 52.3679 21.4185 52.9381 21.4303C54.8157 21.4689 56.6947 21.4551 58.573 21.438C59.0733 21.4335 59.2526 21.5207 59.1329 22.0971C58.5463 24.9236 57.9986 27.7584 57.4635 30.5952C57.2349 31.6665 57.192 32.7691 57.3365 33.8549C57.6644 35.9777 59.109 37.4519 61.2196 37.7721C63.6133 38.1352 65.506 37.2442 66.4732 35.2876C67.2121 33.7927 67.36 32.1402 67.6987 30.5427C68.4214 27.1334 69.106 23.7159 69.78 20.2967C69.8934 19.7211 70.0989 19.4898 70.7356 19.5072C72.5866 19.5576 74.4401 19.5428 76.292 19.5142C76.8444 19.5056 77.0323 19.6362 76.9111 20.2139C75.9073 24.9994 74.9894 29.8039 73.9083 34.5717C73.187 37.7524 71.8389 40.6706 69.0559 42.6189C66.0107 44.7506 62.6062 45.1994 59.0553 44.2471C56.7274 43.6229 55.358 41.9296 54.5866 39.5293C52.6049 42.406 50.0153 44.1494 46.6066 44.5599C43.2152 44.9683 40.1405 44.5121 37.9517 41.344C37.8218 41.972 37.6779 42.4738 37.6226 42.9851C37.5566 43.5961 37.2849 43.7728 36.6646 43.7705C30.1424 43.7462 23.62 43.7555 17.0977 43.7555C13.6539 43.7555 10.2102 43.7555 6.76637 43.7555C3.55373 43.7554 1.85414 42.4712 0.975 39.3846C0.941923 39.3171 0.897903 39.2555 0.844727 39.2024V36.7021Z" fill="#5C5C5C"/>
<path d="M31.3765 55.1422C31.3186 55.0375 31.2678 54.9281 31.2013 54.8291C30.9734 54.4901 31.0461 54.1803 31.323 53.9258C31.4291 53.8079 31.5776 53.7366 31.736 53.7278C31.8944 53.7189 32.0499 53.773 32.1685 53.8783C32.4953 54.1391 32.5808 54.4589 32.3573 54.8327C32.2945 54.9378 32.2255 55.0391 32.1594 55.1422H31.3765Z" fill="#5C5C5C"/>
<path d="M29.6541 55.142C29.703 54.982 29.5455 54.9295 29.4841 54.8296C29.25 54.4488 29.3502 54.1371 29.6744 53.8792C29.782 53.7827 29.9214 53.7292 30.066 53.729C30.2105 53.7288 30.3501 53.7818 30.4581 53.8779C30.7982 54.139 30.8411 54.4669 30.6415 54.8331C30.5826 54.9411 30.5056 55.0393 30.4369 55.142L29.6541 55.142Z" fill="#5C5C5C"/>
<path d="M93.1841 46.1007C92.9936 46.2364 92.8087 46.3809 92.6117 46.5063C91.375 47.294 90.2816 47.1021 89.3987 45.9338C88.6955 45.0032 88.4933 43.8986 88.3744 42.7819C88.0368 39.6094 88.2807 36.4373 88.4762 33.2719C88.9538 25.5393 88.4802 17.8816 86.8123 10.308C86.658 9.60733 86.5208 8.88991 86.0253 8.19674C85.6076 8.96866 85.4324 9.74245 85.2435 10.5044C84.2288 14.5987 83.6509 18.7762 82.8932 22.9194C81.854 28.6018 80.6944 34.2492 78.6485 39.6813C77.3761 43.0598 75.4742 45.9043 72.1597 47.5552C67.756 49.7486 63.2763 50.0434 58.798 47.7566C57.4146 47.057 56.276 45.9542 55.5327 44.5938C55.5779 44.5598 55.6231 44.5258 55.6683 44.4918C62.5505 49.6905 73.0457 45.9522 75.8009 36.7958C77.0171 32.7541 77.6849 28.5834 78.5111 24.4517C79.7504 18.255 80.802 12.0171 82.5724 5.93715C82.965 4.58903 83.3922 3.24646 84.1241 2.03267C84.8573 0.816726 85.6703 0.709117 86.7119 1.69401C87.578 2.51295 88.158 3.53914 88.6322 4.612C90.8918 9.69595 91.9883 15.2201 91.8418 20.7816C91.699 27 91.4591 33.2191 91.7922 39.439C91.8521 40.5568 91.9222 41.6752 92.2641 42.7524C92.3902 43.1497 92.5134 43.5664 93.0339 43.6245C93.0548 44.4516 93.006 45.283 93.1841 46.1007Z" fill="#5C5C5C"/>
<path d="M93.5971 43.2528C94.4499 42.4612 94.9889 41.4446 95.5695 40.4642C97.4901 37.2213 99.3234 33.9236 101.632 30.9269C103.663 28.2891 105.919 25.8934 108.911 24.3077C111.569 22.8995 114.362 22.5042 117.32 23.3008C116.893 23.365 116.464 23.4187 116.04 23.4949C111.659 24.2813 108.23 26.617 105.361 29.9277C102.404 33.3413 99.9557 37.1164 97.4212 40.8331C96.2927 42.488 95.1636 44.1451 93.7445 45.5769C93.5326 44.8212 93.4824 44.0293 93.5971 43.2528V43.2528Z" fill="#5C5C5C"/>
<path d="M107.826 43.8785H104.266C104.238 43.5185 104.489 43.4469 104.581 43.2728C104.893 42.6826 104.536 42.0536 103.872 42.0363C103.585 42.0288 103.299 42.0349 103.012 42.0349C101.713 42.0351 101.442 42.5019 102.086 43.7404C101.308 43.8831 100.551 43.7753 99.7241 43.7358C100.622 43.2618 100.742 42.3929 100.974 41.5869C101.306 40.4389 101.627 39.2877 101.966 38.1416C102.168 37.458 102.371 36.7844 101.532 36.1375C102.882 36.1375 104.037 36.1359 105.192 36.1383C105.622 36.1392 105.647 36.5128 105.75 36.7871C106.485 38.759 107.206 40.7359 107.937 42.7093C108.043 42.9963 108.103 43.317 108.406 43.4889C108.462 43.628 108.519 43.7673 108.575 43.9068L108.583 43.8987C108.33 43.8919 108.078 43.8852 107.826 43.8785ZM104.141 40.984C103.784 40.0815 103.457 39.2587 103.064 38.2658C102.894 38.7827 102.79 39.0979 102.688 39.4137C102.113 41.1847 102.113 41.1848 104.141 40.984Z" fill="#5C5C5C"/>
<path d="M121.665 43.8789C121.643 43.6324 121.859 43.5637 121.943 43.4114C122.295 42.7741 121.947 42.1636 121.219 42.1533C120.881 42.1485 120.542 42.1523 120.203 42.1526C119.211 42.1534 118.979 42.4576 119.239 43.429C119.286 43.5671 119.339 43.7026 119.4 43.8351C118.655 43.9714 117.958 43.8808 117.202 43.8193C118.08 43.2946 118.143 42.394 118.387 41.5935C118.704 40.5499 118.988 39.4961 119.288 38.4473C119.5 37.7082 119.835 36.9608 118.931 36.2399C120.255 36.2399 121.392 36.2507 122.53 36.2345C122.968 36.2282 123.017 36.5542 123.121 36.8366C123.757 38.5681 124.384 40.3027 125.018 42.0348C125.247 42.6613 125.457 43.2971 125.91 43.8789H121.665ZM120.533 38.5878L120.358 38.6071C120.228 39.0281 120.101 39.4499 119.968 39.8698C119.537 41.2339 119.652 41.3622 121.073 41.1744C121.385 41.1332 121.503 41.0351 121.383 40.7318C121.1 40.017 120.817 39.3024 120.533 38.5878V38.5878Z" fill="#5C5C5C"/>
<path d="M113.902 38.8748C114.487 39.2561 115.14 39.5299 115.662 40.0119C116.864 41.1204 116.785 42.4049 115.455 43.3385C114.313 44.1396 113.04 44.3075 111.733 43.9787C111.049 43.8068 110.476 43.713 109.962 44.4026C109.719 43.8909 109.924 43.4131 109.78 42.9875C109.783 42.7741 109.786 42.5608 109.789 42.3474C109.801 42.1188 109.848 41.9282 110.151 42.02C110.201 42.2297 110.395 42.2409 110.549 42.3069C111.433 43.023 112.423 43.1404 113.461 42.7486C114.023 42.5367 114.06 42.0873 113.547 41.7712C113.001 41.435 112.428 41.1197 111.754 41.1077C111.686 40.882 111.493 40.9289 111.329 40.9119C111.158 40.8 110.987 40.688 110.816 40.576C110.447 40.3527 110.148 40.0304 109.953 39.6456C109.758 39.2609 109.674 38.8291 109.712 38.3993C109.772 37.4661 110.308 36.8128 111.159 36.4423C112.184 35.996 113.247 36.1166 114.293 36.3344C114.837 36.4476 115.312 36.4192 115.745 36.0593C115.763 36.1757 115.781 36.292 115.799 36.4084C115.766 36.635 115.666 36.8759 115.711 37.0856C115.894 37.9284 115.556 38.0235 114.885 37.7103C114.866 37.6346 114.819 37.5693 114.752 37.5286C114.686 37.4879 114.606 37.4752 114.53 37.4931C114.267 37.2453 113.928 37.1934 113.596 37.1814C113.033 37.1611 112.392 37.0778 112.153 37.7704C112.006 38.1941 112.688 38.6357 113.525 38.7055C113.554 38.7766 113.61 38.8339 113.68 38.8654C113.75 38.8969 113.83 38.9002 113.902 38.8748Z" fill="#5C5C5C"/>
<path d="M43.8693 50.8422C43.5909 50.4758 43.4424 50.1952 43.2182 50.002C42.6276 49.4928 42.854 49.0961 43.3239 48.6811C43.8419 48.2361 44.5094 48.0041 45.1918 48.0319C45.8742 48.0596 46.5206 48.3452 47.0007 48.8308C47.3508 49.1891 47.4391 49.4852 47.0488 49.8708C46.7739 50.1796 46.5168 50.5037 46.2787 50.8417C47.0583 50.8417 47.6923 50.8277 48.3254 50.8468C48.7168 50.8587 48.7229 50.6307 48.7212 50.3458C48.7145 49.2009 48.7692 48.0528 48.6987 46.9122C48.659 46.2692 48.9572 46.1244 49.4713 46.0057C49.8067 45.9283 49.8838 46.0018 49.8827 46.315C49.8767 48.0324 49.8774 49.7498 49.8851 51.4672C49.8869 51.7794 49.7597 51.8665 49.4675 51.8638C48.2423 51.8525 47.002 51.975 45.7956 51.8232C44.5279 51.6637 43.2931 52.0471 42.0442 51.8581C41.6751 51.8023 41.727 52.0871 41.659 52.2955C41.3501 53.2425 40.6664 53.7114 39.696 53.8254C39.57 53.8566 39.4367 53.8367 39.3253 53.7699C39.2139 53.7032 39.1335 53.595 39.1017 53.4691C38.9455 53.0647 39.2824 53.1246 39.4697 53.0634C40.267 52.8032 40.6336 52.2817 40.612 51.4269C40.589 50.5155 40.5904 49.6043 40.4022 48.7094C40.2595 48.0311 40.8549 48.2256 41.1334 48.0973C41.5809 47.8912 41.4916 48.3364 41.5202 48.533C41.6144 49.1232 41.6719 49.7188 41.6921 50.3161C41.6997 50.7027 41.7725 50.8837 42.2057 50.8508C42.6968 50.8136 43.1929 50.8422 43.8693 50.8422ZM45.0808 50.7964C45.2791 50.545 45.4673 50.333 45.6242 50.1001C45.7881 49.8566 46.2098 49.6533 46.0518 49.3563C45.8622 48.9997 45.4026 48.9912 45.0098 49.0085C44.8302 49.0169 44.6523 49.0467 44.4798 49.0972C44.0515 49.222 43.953 49.4411 44.2786 49.8016C44.5369 50.0875 44.7644 50.4011 45.0808 50.7964H45.0808Z" fill="#5C5C5C"/>
<path d="M107.826 43.8785C108.078 43.8852 108.331 43.892 108.583 43.8987C105.543 46.537 102.236 48.6924 98.1589 49.3015C95.6252 49.68 93.9174 48.515 93.1844 46.1006C93.0063 45.2829 93.0551 44.4515 93.0342 43.6244C93.4401 39.9296 94.9707 36.6484 96.8486 33.5148C99.1492 29.7007 101.97 26.2259 105.23 23.1908C105.302 23.1158 105.379 23.0453 105.459 22.9797C105.627 22.8577 105.776 22.5334 106.018 22.8293C106.221 23.0769 105.918 23.1776 105.787 23.3071C104.917 24.1666 104.011 24.9911 103.174 25.8811C99.642 29.6385 96.6489 33.7586 94.7389 38.5897C94.1456 40.0904 93.6904 41.6285 93.5974 43.253C93.4826 44.0294 93.5328 44.8213 93.7447 45.5769C94.486 47.9672 96.2799 48.9616 99.1205 48.3791C102.43 47.7004 105.243 45.9946 107.826 43.8785Z" fill="#5C5C5C"/>
<path d="M29.7639 49.2952C29.4483 50.221 28.8373 51.0521 29.5842 51.8734C30.2092 52.5606 31.072 52.3523 31.8716 52.2355C32.4088 52.1571 32.5808 51.7812 32.5981 51.266C32.4597 51.2483 32.3336 51.2223 32.2067 51.2175C30.932 51.1693 30.5887 50.6149 31.123 49.4626C31.5492 48.5435 32.4594 48.0363 33.5485 48.111C34.3983 48.1692 34.9949 48.813 35.3412 49.9194C35.4345 50.2176 35.2524 50.7289 35.6597 50.7947C36.2693 50.893 36.9068 50.8451 37.5304 50.8151C37.7112 50.8064 37.6656 50.5685 37.6671 50.4223C37.6721 49.9277 37.6664 49.4329 37.6698 48.9383C37.6734 48.4032 38.2057 47.9334 38.7043 48.0084C38.9394 48.0438 38.8938 48.2159 38.8943 48.3586C38.8978 49.4001 38.8871 50.4417 38.9002 51.483C38.9043 51.8102 38.7475 51.8671 38.4682 51.865C37.2682 51.856 36.0681 51.8531 34.8683 51.8664C34.5519 51.8699 34.4854 51.7404 34.4739 51.4514C34.4502 50.8546 34.4153 50.2495 34.1753 49.6913C33.8806 49.0062 33.1784 48.8065 32.5544 49.2099C32.2789 49.3879 32.0341 49.6433 32.1045 49.968C32.1792 50.313 32.5409 50.1746 32.7752 50.1662C33.4854 50.1407 33.7529 50.4724 33.7427 51.1611C33.7251 52.3528 33.2445 52.9948 32.0839 53.2757C31.2851 53.469 30.4829 53.5175 29.6953 53.2403C28.0832 52.6727 27.6942 50.5535 28.978 49.413C29.2162 49.2015 29.4524 49.2886 29.7639 49.2952Z" fill="#5C5C5C"/>
<path d="M115.799 36.4084C115.781 36.2921 115.763 36.1757 115.745 36.0594C118.175 32.8912 120.325 29.5623 121.615 25.7498C122.208 23.9944 122.689 22.2098 122.396 20.3279C121.986 17.6923 120.156 16.3793 117.497 16.7764C116.748 16.8692 116.011 17.0427 115.3 17.2941C114.891 17.45 114.603 17.422 114.415 16.9024C116.071 16.1943 117.772 15.6794 119.59 16.0019C121.635 16.3647 122.835 17.8811 122.976 20.0909C123.133 22.5407 122.461 24.8251 121.55 27.0524C120.203 30.3453 118.322 33.3286 116.159 36.1423C116.062 36.2676 115.978 36.3998 115.799 36.4084Z" fill="#5C5C5C"/>
<path d="M107.082 22.8364C105.966 22.8268 105.539 22.1715 106.096 21.204C106.802 19.939 107.957 18.9845 109.332 18.5286C110.322 18.1949 110.9 18.6444 110.931 19.6772C110.951 20.3137 110.697 20.84 110.305 21.3123C109.573 22.1963 108.189 22.8458 107.082 22.8364Z" fill="#5C5C5C"/>
<path d="M50.9334 49.0151C50.9335 48.2877 51.001 47.5524 50.9154 46.8353C50.821 46.0449 51.4082 46.0333 51.8375 45.9935C52.4119 45.9402 52.1338 46.4688 52.1412 46.721C52.1753 47.8889 52.175 49.0588 52.1467 50.227C52.1358 50.6769 52.2144 50.9106 52.7325 50.8453C53.3681 50.7652 54.2193 51.1223 54.5907 50.7043C54.9061 50.3494 54.6906 49.5219 54.7045 48.9033C54.7083 48.7805 54.7369 48.6597 54.7885 48.5483C54.8401 48.4368 54.9138 48.3369 55.005 48.2546C55.0962 48.1723 55.2032 48.1093 55.3194 48.0694C55.4356 48.0295 55.5586 48.0135 55.6812 48.0224C55.8939 48.0491 55.9012 48.1878 55.9026 48.3513C55.9115 49.3896 55.9142 50.4282 55.9408 51.4661C55.9508 51.8564 55.7255 51.8654 55.4407 51.8642C54.1134 51.8589 52.7858 51.8481 51.4589 51.8703C51.0586 51.877 50.9063 51.7763 50.9241 51.3525C50.9568 50.5746 50.9334 49.7943 50.9334 49.0151Z" fill="#5C5C5C"/>
<path d="M38.1967 53.2172C38.1335 53.6265 37.9267 53.9013 37.4852 53.8847C37.0596 53.8687 36.8034 53.6195 36.8152 53.1905C36.8107 53.0986 36.8258 53.0067 36.8594 52.921C36.893 52.8353 36.9443 52.7576 37.0101 52.6932C37.0758 52.6288 37.1545 52.579 37.2408 52.5471C37.3272 52.5153 37.4194 52.5021 37.5112 52.5084C37.9404 52.5088 38.1377 52.8146 38.1967 53.2172Z" fill="#5C5C5C"/>
<path d="M115.898 12.1888C115.621 11.4045 115.547 11.3373 114.675 11.1463C115.282 10.9082 115.907 10.7536 115.824 9.94604C115.994 10.4498 115.985 11.0245 116.781 11.1382C116.166 11.3054 115.919 11.6576 115.898 12.1888Z" fill="#5C5C5C"/>
<path d="M55.1875 53.2533C55.1502 53.6627 54.9125 53.903 54.4793 53.8863C54.0491 53.8697 53.7841 53.5915 53.8032 53.1824C53.8024 53.0896 53.8208 52.9977 53.8574 52.9124C53.8939 52.8271 53.9479 52.7504 54.0157 52.687C54.0835 52.6237 54.1637 52.5751 54.2513 52.5445C54.3389 52.5138 54.4319 52.5017 54.5244 52.5088C54.9418 52.5238 55.1759 52.7933 55.1875 53.2533Z" fill="#5C5C5C"/>
<path d="M99.6606 20.7878C100.501 21.314 100.406 21.8039 99.7558 22.3351C99.5794 21.9429 99.3449 21.606 98.8076 21.5972C99.1558 21.312 99.6767 21.3319 99.6606 20.7878Z" fill="#5C5C5C"/>
<path d="M109.789 42.3474C109.786 42.5608 109.783 42.7741 109.779 42.9875C109.358 43.2676 109.085 43.7422 108.575 43.9068C108.519 43.7674 108.462 43.6281 108.406 43.4889C108.867 43.1086 109.328 42.7281 109.789 42.3474Z" fill="#5C5C5C"/>
<path d="M110.549 42.3069C110.395 42.2409 110.201 42.2297 110.151 42.02C110.544 41.6507 110.936 41.2814 111.329 40.9121C111.493 40.929 111.687 40.882 111.754 41.1077C111.352 41.5074 110.951 41.9072 110.549 42.3069Z" fill="#5C5C5C"/>
<path d="M113.903 38.8749C113.83 38.9004 113.75 38.897 113.68 38.8655C113.61 38.834 113.554 38.7768 113.525 38.7056C113.86 38.3015 114.195 37.8974 114.53 37.4933C114.606 37.4754 114.686 37.4881 114.752 37.5288C114.819 37.5695 114.866 37.6348 114.885 37.7105C114.558 38.0982 114.23 38.4863 113.903 38.8749Z" fill="#5C5C5C"/>
<path d="M116.305 18.82C116.259 19.0323 116.173 19.2092 115.918 19.2096C115.867 19.2125 115.816 19.2047 115.768 19.1865C115.72 19.1682 115.676 19.1401 115.639 19.1039C115.603 19.0676 115.575 19.0241 115.556 18.9762C115.538 18.9282 115.53 18.8769 115.532 18.8256C115.53 18.7743 115.539 18.7231 115.557 18.6752C115.576 18.6274 115.604 18.5838 115.64 18.5472C115.676 18.5106 115.719 18.4818 115.767 18.4625C115.814 18.4431 115.865 18.4338 115.917 18.4349C116.162 18.4324 116.267 18.5999 116.305 18.82Z" fill="#5C5C5C"/>
<path d="M107.305 11.4053C107.266 11.6428 107.13 11.8173 106.902 11.8099C106.85 11.8115 106.797 11.8016 106.749 11.7809C106.701 11.7603 106.657 11.7294 106.622 11.6903C106.587 11.6512 106.56 11.605 106.545 11.5547C106.529 11.5045 106.525 11.4514 106.531 11.3993C106.53 11.3534 106.538 11.3077 106.554 11.2651C106.571 11.2224 106.596 11.1836 106.629 11.1511C106.661 11.1186 106.7 11.093 106.742 11.0761C106.785 11.0592 106.831 11.0512 106.877 11.0526C106.928 11.0473 106.98 11.0523 107.029 11.0672C107.079 11.0821 107.124 11.1067 107.164 11.1395C107.204 11.1723 107.237 11.2127 107.261 11.2583C107.285 11.304 107.3 11.3539 107.305 11.4053V11.4053Z" fill="#5C5C5C"/>
<path d="M111.253 11.902C111.22 12.1345 111.1 12.3062 110.854 12.2832C110.801 12.283 110.749 12.2717 110.701 12.25C110.653 12.2282 110.61 12.1965 110.575 12.157C110.541 12.1175 110.514 12.0711 110.499 12.0207C110.483 11.9704 110.478 11.9173 110.485 11.865C110.489 11.7723 110.529 11.6851 110.598 11.6223C110.666 11.5594 110.756 11.5261 110.849 11.5296C110.901 11.5228 110.953 11.5275 111.003 11.5434C111.053 11.5592 111.099 11.5858 111.138 11.6213C111.176 11.6568 111.207 11.7004 111.227 11.7489C111.246 11.7974 111.255 11.8496 111.253 11.902V11.902Z" fill="#5C5C5C"/>
<path d="M96.6088 20.9745C96.5519 21.1609 96.4441 21.2876 96.2339 21.2657C96.1575 21.2621 96.0852 21.2297 96.0317 21.1749C95.9782 21.1201 95.9475 21.047 95.9458 20.9705C95.9423 20.9257 95.9483 20.8807 95.9634 20.8384C95.9784 20.7962 96.0022 20.7575 96.0331 20.725C96.0641 20.6925 96.1016 20.6669 96.1431 20.6498C96.1846 20.6327 96.2292 20.6246 96.2741 20.6259C96.4696 20.6261 96.5803 20.7774 96.6088 20.9745Z" fill="#5C5C5C"/>
<path d="M97.4909 22.7622C97.4469 22.7628 97.4032 22.7547 97.3624 22.7383C97.3215 22.7219 97.2844 22.6975 97.2531 22.6666C97.2218 22.6357 97.1969 22.5989 97.18 22.5583C97.1631 22.5176 97.1545 22.4741 97.1546 22.4301C97.1527 22.3852 97.1604 22.3404 97.177 22.2986C97.1936 22.2569 97.2189 22.2191 97.2512 22.1878C97.2834 22.1565 97.3219 22.1324 97.3641 22.117C97.4063 22.1016 97.4513 22.0953 97.4962 22.0985C97.5724 22.0986 97.6455 22.1286 97.6999 22.182C97.7542 22.2353 97.7856 22.3079 97.7872 22.384C97.8119 22.6014 97.6795 22.7002 97.4909 22.7622Z" fill="#5C5C5C"/>
<path d="M55.5339 44.3293L55.4761 44.3344L55.5133 44.3438L55.5339 44.3293Z" fill="#5C5C5C"/>
<path d="M55.5129 44.3435C55.5646 44.393 55.6164 44.4424 55.6682 44.4918C55.6231 44.5259 55.5779 44.5599 55.5327 44.5939C55.4754 44.5064 55.4224 44.4187 55.5323 44.3299C55.5332 44.3293 55.5129 44.3435 55.5129 44.3435Z" fill="#5C5C5C"/>
</svg>
