<svg width="1600" height="560" viewBox="0 0 1600 560" fill="none" xmlns="http://www.w3.org/2000/svg">
<rect width="1600" height="560" fill="#FEDBE1"/>
<g clip-path="url(#clip0)">
<g filter="url(#filter0_d)">
<path d="M1397.09 -50.2991C1407.25 -36.5983 1409.29 -17.8026 1404.18 4.54613C1399.06 26.8925 1386.79 52.7232 1368.44 80.4016C1331.73 135.755 1270.73 198.404 1194.14 255.211C1117.54 312.017 1039.87 352.199 976.249 371.253C944.434 380.78 916.155 385.016 893.286 383.424C870.414 381.832 853.022 374.418 842.861 360.717C832.7 347.016 830.655 328.221 835.772 305.872C840.889 283.525 853.153 257.695 871.507 230.016C908.213 174.663 969.213 112.014 1045.81 55.2075C1122.41 -1.59903 1200.07 -41.781 1263.7 -60.8346C1295.51 -70.362 1323.79 -74.5984 1346.66 -73.0063C1369.53 -71.4142 1386.93 -64 1397.09 -50.2991Z" stroke="black" stroke-opacity="0.3"/>
</g>
</g>
<defs>
<filter id="filter0_d" x="832.573" y="-73.834" width="574.802" height="458.086" filterUnits="userSpaceOnUse" color-interpolation-filters="sRGB">
<feFlood flood-opacity="0" result="BackgroundImageFix"/>
<feColorMatrix in="SourceAlpha" type="matrix" values="0 0 0 0 0 0 0 0 0 0 0 0 0 0 0 0 0 0 127 0"/>
<feMorphology radius="71" operator="erode" in="SourceAlpha" result="effect1_dropShadow"/>
<feOffset dy="4"/>
<feGaussianBlur stdDeviation="2"/>
<feColorMatrix type="matrix" values="0 0 0 0 0 0 0 0 0 0 0 0 0 0 0 0 0 0 0.25 0"/>
<feBlend mode="normal" in2="BackgroundImageFix" result="effect1_dropShadow"/>
<feBlend mode="normal" in="SourceGraphic" in2="effect1_dropShadow" result="shape"/>
</filter>
<clipPath id="clip0">
<rect width="704" height="461" fill="white" transform="translate(768)"/>
</clipPath>
</defs>
</svg>
