<svg width="197" height="42" viewBox="0 0 197 42" fill="none" xmlns="http://www.w3.org/2000/svg">
<g clip-path="url(#clip0)">
<path d="M74.0956 35.7441C70.8533 35.7279 68.8594 34.2364 67.4287 32.5079L67.3821 41.7139L61.2988 41.6835L61.4387 13.8285L67.5219 13.8589L67.5057 16.941C68.9972 14.947 71.0459 13.4759 74.2071 13.4921C79.2103 13.5164 83.9521 17.4638 83.9176 24.6272V24.7062C83.8791 31.8716 79.1778 35.7704 74.0956 35.7441ZM77.8323 24.5968C77.8505 21.0344 75.4614 18.6614 72.6183 18.6473C69.7773 18.6331 67.4044 20.9817 67.3862 24.5441V24.6231C67.3679 28.1856 69.7186 30.5585 72.5596 30.5727C75.4006 30.5869 77.8141 28.2768 77.8323 24.6758V24.5968V24.5968ZM106.318 26.9008L91.389 26.8258C91.9746 29.5899 93.8896 31.0408 96.611 31.055C98.6516 31.0651 100.137 30.4329 101.825 28.8806L105.292 31.979C103.278 34.4512 100.388 35.9568 96.5077 35.9366C90.0637 35.9042 85.3239 31.3569 85.3564 24.7934V24.7123C85.3868 18.5885 89.7739 13.5671 96.0193 13.5995C103.183 13.636 106.437 19.2147 106.407 25.2979V25.379C106.403 25.9808 106.36 26.3395 106.318 26.9008V26.9008ZM95.995 18.4831C93.4742 18.471 91.8247 20.2623 91.3302 23.0223L100.496 23.0689C100.147 20.3454 98.5564 18.4973 95.995 18.4831V18.4831ZM121.56 20.0921C117.517 20.0718 115.025 22.5015 114.999 27.6243L114.958 35.5495L108.875 35.5191L108.982 14.0676L115.066 14.098L115.043 18.4203C116.3 15.4658 118.31 13.5529 121.911 13.7312L121.878 20.0941L121.56 20.0921V20.0921Z" fill="#5C5C5C"/>
<path d="M131.127 36.0307C128.126 36.0161 124.768 34.9968 121.937 32.7414L124.559 28.7514C126.871 30.4434 129.309 31.3371 131.311 31.3472C133.072 31.3553 133.877 30.719 133.881 29.7585V29.6795C133.887 28.3583 131.808 27.9084 129.451 27.1748C126.454 26.2792 123.06 24.8607 123.08 20.6984V20.6194C123.102 16.2566 126.636 13.833 130.959 13.8553C133.68 13.8694 136.637 14.8036 138.951 16.3761L136.608 20.5667C134.493 19.3144 132.375 18.5444 130.815 18.5363C129.333 18.5282 128.569 19.1644 128.565 20.0054V20.0865C128.559 21.2861 130.598 21.8575 132.914 22.6701C135.911 23.6854 139.386 25.1444 139.366 29.0655V29.1445C139.342 33.9106 135.769 36.0546 131.127 36.0303V36.0307ZM141.934 11.8714L141.96 6.46899L148.363 6.50142L148.337 11.9038L141.934 11.8714ZM141.974 35.6858L142.082 14.2342L148.165 14.2646L148.057 35.7162L141.974 35.6858ZM167.27 35.8134L167.286 32.7313C165.795 34.7252 163.746 36.1944 160.585 36.1802C155.581 36.1559 150.84 32.2084 150.874 25.0451V24.9661C150.911 17.8027 155.612 13.9039 160.696 13.9282C163.938 13.9444 165.932 15.4359 167.365 17.1644L167.418 6.59868L173.501 6.62908L173.353 35.8458L167.27 35.8134ZM167.404 25.0471C167.422 21.4847 165.071 19.1118 162.23 19.0976C159.389 19.0834 156.976 21.3935 156.957 24.9944V25.0735C156.939 28.6359 159.328 31.0088 162.171 31.023C165.012 31.0372 167.385 28.6886 167.404 25.1261V25.0471V25.0471ZM196.768 27.3552L181.84 27.2802C182.425 30.0442 184.34 31.4951 187.062 31.5093C189.102 31.5195 190.588 30.8872 192.276 29.335L195.743 32.4334C193.729 34.9056 190.841 36.4112 186.958 36.391C180.514 36.3585 175.775 31.8113 175.807 25.2477V25.1667C175.837 19.0429 180.227 14.0214 186.47 14.0538C193.633 14.0903 196.888 19.669 196.857 25.7523V25.8334C196.853 26.4352 196.811 26.7959 196.768 27.3552V27.3552ZM186.446 18.9395C183.925 18.9274 182.273 20.7187 181.781 23.4787L190.946 23.5253C190.598 20.8018 189.007 18.9517 186.446 18.9395V18.9395Z" fill="#5C5C5C"/>
<path d="M51.9123 13.78L51.8515 25.746C51.8373 28.6275 50.3479 30.1007 48.0277 30.0886C45.7054 30.0764 44.3538 28.589 44.368 25.7075L44.4004 19.4256C43.5108 19.6505 42.5908 19.7701 41.6546 19.7701C40.5138 19.7701 39.3891 19.5938 38.3171 19.2594L38.2746 27.5961C38.2503 32.5182 40.917 35.5741 45.519 35.5964C48.6012 35.6126 50.4107 33.9793 51.8191 32.1859L51.8029 35.2275L57.8862 35.2579L57.9936 13.8064L51.9123 13.78V13.78Z" fill="#5C5C5C"/>
<path d="M47.8197 1.64215L47.2827 1.17H37.562L43.546 6.43056C43.8284 6.67755 44.0591 6.97808 44.2246 7.31477C44.3902 7.65146 44.4874 8.01764 44.5105 8.39212C44.5358 8.7668 44.4865 9.14277 44.3654 9.49826C44.2444 9.85375 44.054 10.1817 43.8053 10.4631C43.5368 10.7681 43.2063 11.0122 42.8359 11.1793C42.4655 11.3463 42.0637 11.4324 41.6573 11.4317C40.9665 11.4317 40.2991 11.1811 39.7789 10.7265L31.4868 3.43958C29.8014 1.97402 27.643 1.16722 25.4096 1.16797C24.0907 1.16685 22.7868 1.44697 21.5848 1.98963C20.3827 2.5323 19.3102 3.32504 18.4387 4.31499C15.081 8.13882 15.4417 13.9951 19.2453 17.3752L27.5272 24.6561C27.8096 24.9031 28.0403 25.2036 28.2059 25.5403C28.3714 25.877 28.4686 26.2432 28.4918 26.6176C28.517 26.9923 28.4677 27.3683 28.3466 27.7238C28.2256 28.0793 28.0352 28.4072 27.7866 28.6886C27.5179 28.9934 27.1874 29.2375 26.817 29.4045C26.4466 29.5715 26.0449 29.6577 25.6386 29.6573C24.945 29.658 24.275 29.4059 23.754 28.948L15.4701 21.6651C13.6422 20.0764 11.2065 19.2537 8.79102 19.4097C6.3188 19.5678 4.05732 20.6803 2.41998 22.5425C1.61507 23.4568 0.998632 24.5211 0.60603 25.6742C0.213427 26.8273 0.0523931 28.0466 0.132167 29.2621C0.290227 31.7161 1.39057 33.9654 3.22852 35.5987L3.75741 36.0648H13.4781L7.50222 30.8123C7.21922 30.5654 6.98819 30.2646 6.82259 29.9275C6.65699 29.5903 6.56012 29.2236 6.53765 28.8487C6.5124 28.474 6.56173 28.0981 6.68277 27.7426C6.80382 27.3871 6.99418 27.0591 7.24284 26.7777C7.48939 26.4948 7.78982 26.2638 8.1266 26.0981C8.46338 25.9325 8.82978 25.8357 9.2044 25.8132C9.97444 25.7645 10.708 26.0199 11.2774 26.5184L19.5614 33.8013C21.146 35.1813 23.1805 35.9837 25.2981 36.0648H26.0135C27.2681 36.0138 28.4995 35.7094 29.6334 35.1699C30.7673 34.6305 31.7803 33.8671 32.6115 32.9259C35.9712 29.1061 35.6085 23.2498 31.8049 19.8697L23.519 12.5868C23.2363 12.3395 23.0055 12.0387 22.8399 11.7016C22.6744 11.3646 22.5773 10.998 22.5544 10.6232C22.529 10.2488 22.5782 9.87311 22.6993 9.51793C22.8204 9.16275 23.0108 8.83517 23.2596 8.55423C23.7602 7.98573 24.4659 7.63895 25.2218 7.58995C25.9778 7.54095 26.7223 7.79372 27.2921 8.29283L35.5761 15.5757H35.5781C37.2621 17.0388 39.4202 17.8453 41.6553 17.8453C44.3282 17.8453 46.8693 16.6984 48.6282 14.6983C50.1144 13.007 50.9334 10.8321 50.9322 8.58058C50.932 7.26996 50.6546 5.97422 50.1181 4.77841C49.5817 3.58261 48.7984 2.5138 47.8197 1.64215V1.64215Z" fill="#5C5C5C"/>
</g>
<defs>
<clipPath id="clip0">
<rect width="196.967" height="40.9335" fill="white" transform="translate(0 0.975098)"/>
</clipPath>
</defs>
</svg>
