<svg width="185" height="58" viewBox="0 0 185 58" fill="none" xmlns="http://www.w3.org/2000/svg">
<path d="M0.721924 12.3727H8.18481V30.5046C8.18481 35.1892 11.683 37.4727 14.9683 37.4727C18.282 37.4727 21.7539 35.1284 21.7539 30.4418V12.3727H29.2167V30.9366C29.2167 35.2521 27.86 38.582 25.1466 40.8655C22.4312 43.1469 19.0405 44.2582 14.9055 44.2582C10.7745 44.2582 7.38173 43.1489 4.73119 40.8655C2.07863 38.584 0.721924 35.3778 0.721924 31.1211V12.3727V12.3727ZM93.7362 34.9073C91.4771 36.919 88.9036 37.9046 85.9691 37.9046C80.6153 37.9046 77.0258 34.8546 76.6202 30.1315H100.733C100.733 30.1315 100.895 28.6065 100.895 27.1747C100.895 22.7335 99.4753 19.0325 96.5753 16.0108C93.7403 12.9892 90.0413 11.5087 85.5372 11.5087C80.7897 11.5087 76.9021 12.9892 73.8176 16.0108C70.7959 19.0325 69.2547 22.9789 69.2547 27.9149V28.1583C69.2547 33.0315 70.7959 36.917 73.8176 39.817C76.8393 42.7149 80.8485 44.1954 85.7217 44.1954C91.3878 44.1954 95.896 41.9605 99.2786 38.1074L93.7362 34.9073V34.9073ZM79.5527 19.7727C81.2156 18.4768 83.2537 17.7995 85.5351 17.7995C87.6929 17.7995 89.4815 18.4768 91.0248 19.8355C92.4971 21.0726 93.2921 22.5915 93.361 24.3376H76.8109C77.0502 22.5327 77.9628 21.0118 79.5547 19.7747L79.5527 19.7727ZM168.86 48.3851C165.832 55.5337 162.664 57.9652 157.807 57.9652H154.441V51.35H157.163C158.834 51.35 160.387 50.7213 161.867 47.3062L163.348 43.8871L150.58 12.3727H158.166L167.233 35.0695L176.548 12.3727H184.132L168.862 48.3851H168.86ZM58.2693 0.470581V15.1875C55.8235 12.9973 52.0191 11.6933 48.3404 11.6933C43.96 11.6933 40.261 13.2345 37.2393 16.3779C34.2785 19.4624 32.7981 23.2851 32.7981 27.9109C32.7981 32.5387 34.2785 36.3614 37.2393 39.5067C40.261 42.5912 43.962 44.1345 48.3404 44.1345C53.39 44.1345 56.582 42.1491 58.2693 40.5937V43.4552H65.6713V0.472609H58.2693V0.470581ZM56.0486 34.6984C54.26 36.4871 51.9785 37.4139 49.326 37.4139C46.6734 37.4139 44.5157 36.4871 42.727 34.6984C41.0032 32.9098 40.1373 30.6283 40.1373 27.9149C40.1373 25.1995 41.0012 22.918 42.727 21.1294C44.5157 19.3407 46.6734 18.416 49.326 18.416C51.9785 18.416 54.26 19.3407 56.0486 21.1294C57.8981 22.918 58.8269 25.1995 58.8269 27.9149C58.8269 30.6283 57.8981 32.9098 56.0486 34.6984ZM139.073 11.7562C133.452 11.7562 130.529 14.0883 128.528 16.3353C127.727 14.8082 125.472 11.7562 120.203 11.7562C115.75 11.7562 113.125 14.0072 111.815 15.6093V12.3767H104.478V43.4592H111.815V25.5726C111.815 21.3788 114.407 18.3572 117.859 18.3572C121.377 18.3572 123.411 21.0097 123.411 25.2644V43.4572H130.75V25.5706C130.75 21.3159 133.277 18.3551 136.915 18.3551C140.432 18.3551 142.466 21.0077 142.466 25.2603V43.4552H149.868V24.2139C149.868 16.1102 145.512 11.7582 139.073 11.7582V11.7562Z" fill="white"/>
</svg>
