<svg width="730" height="310" viewBox="0 0 730 310" fill="none" xmlns="http://www.w3.org/2000/svg">
<g clip-path="url(#clip0)">
<rect width="730" height="310" fill="#CFDEFF"/>
<rect width="877.783" height="760.032" transform="translate(-55 -225.016)" fill="#CFDEFF"/>
<circle cx="667.205" cy="-59.8929" r="120.56" transform="rotate(-1.7602 667.205 -59.8929)" fill="#6244FF"/>
<circle cx="82.5334" cy="378.253" r="105.536" fill="url(#paint0_linear)"/>
<g filter="url(#filter0_b)">
<rect x="-10.8158" y="-120.71" width="750.228" height="537.869" rx="88.5515" fill="white" fill-opacity="0.63"/>
<rect x="-10.8158" y="-120.71" width="750.228" height="537.869" rx="88.5515" stroke="white" stroke-width="1.63984"/>
</g>
<path d="M356.22 177.668C356.163 180.97 354.843 184.125 352.531 186.483C351.422 187.616 350.093 188.511 348.627 189.114C347.16 189.716 345.586 190.013 344 189.987C335.813 189.769 327.756 187.887 320.32 184.455C312.883 181.024 306.223 176.115 300.744 170.027C289.327 157.357 283.191 140.797 283.597 123.746C283.654 120.444 284.974 117.29 287.286 114.932C288.39 113.793 289.718 112.894 291.186 112.291C292.654 111.688 294.23 111.395 295.816 111.428C297.402 111.461 298.965 111.821 300.406 112.485C301.847 113.149 303.136 114.103 304.192 115.287C306.332 117.66 307.515 120.744 307.51 123.94C307.402 127.104 307.636 130.269 308.209 133.383C309.813 141.961 314.278 149.743 320.874 155.457C327.47 161.172 335.808 164.482 344.528 164.848C346.113 164.888 347.674 165.251 349.114 165.915C350.554 166.578 351.844 167.528 352.905 168.707C355.115 171.16 356.302 174.367 356.22 177.668V177.668Z" fill="url(#paint1_linear)"/>
<path d="M235.339 177.667C235.395 180.969 236.715 184.124 239.027 186.482C240.136 187.615 241.465 188.51 242.932 189.113C244.398 189.715 245.972 190.012 247.558 189.986C255.745 189.768 263.802 187.886 271.238 184.454C278.675 181.023 285.335 176.114 290.814 170.026C302.232 157.356 308.367 140.796 307.961 123.745C307.904 120.444 306.584 117.289 304.273 114.931C303.168 113.792 301.84 112.893 300.372 112.29C298.905 111.687 297.328 111.394 295.742 111.427C294.156 111.46 292.593 111.82 291.152 112.484C289.711 113.148 288.422 114.102 287.366 115.286C285.226 117.659 284.044 120.743 284.048 123.939C284.157 127.103 283.922 130.269 283.349 133.382C281.745 141.96 277.281 149.742 270.684 155.456C264.088 161.171 255.75 164.481 247.03 164.847C245.445 164.887 243.885 165.25 242.445 165.914C241.004 166.577 239.715 167.527 238.654 168.706C236.443 171.159 235.257 174.366 235.339 177.667V177.667Z" fill="url(#paint2_linear)"/>
<circle cx="342.512" cy="130.115" r="14.7693" fill="url(#paint3_linear)"/>
<path d="M413.324 137.153C413.34 137.266 413.329 137.381 413.293 137.489C413.257 137.597 413.196 137.695 413.116 137.776C413.035 137.856 412.937 137.917 412.829 137.953C412.721 137.989 412.606 137.999 412.493 137.983L409.085 137.983C408.976 137.984 408.867 137.964 408.766 137.923C408.665 137.881 408.573 137.82 408.495 137.743C408.418 137.666 408.357 137.574 408.316 137.473C408.274 137.371 408.254 137.263 408.255 137.153C408.255 129.27 408.756 124.147 408.756 116.263C408.755 116.154 408.775 116.046 408.817 115.944C408.858 115.843 408.919 115.751 408.997 115.674C409.074 115.597 409.166 115.536 409.267 115.494C409.368 115.453 409.477 115.432 409.586 115.434L412.994 115.434C413.107 115.418 413.222 115.428 413.33 115.464C413.438 115.5 413.536 115.561 413.616 115.641C413.697 115.722 413.758 115.82 413.794 115.928C413.83 116.036 413.84 116.151 413.824 116.263V117.88C414.715 117.153 415.699 116.551 416.752 116.089C417.779 115.612 418.896 115.358 420.029 115.346C421.002 115.337 421.968 115.523 422.868 115.893C423.717 116.239 424.484 116.76 425.119 117.421C425.75 118.085 426.247 118.864 426.583 119.716C426.94 120.634 427.118 121.613 427.107 122.599L427.107 136.45C427.123 136.562 427.112 136.677 427.076 136.785C427.04 136.893 426.98 136.992 426.899 137.072C426.819 137.153 426.72 137.213 426.612 137.249C426.504 137.285 426.389 137.295 426.277 137.279H422.868C422.759 137.281 422.651 137.26 422.549 137.219C422.448 137.178 422.356 137.117 422.279 137.039C422.201 136.962 422.14 136.87 422.099 136.769C422.058 136.668 422.037 136.559 422.038 136.45V124.26C422.101 123.265 421.807 122.281 421.208 121.485C420.915 121.153 420.551 120.892 420.142 120.721C419.733 120.551 419.291 120.476 418.849 120.502C418.211 120.501 417.58 120.628 416.992 120.874C416.411 121.11 415.878 121.451 415.419 121.878C414.963 122.307 414.592 122.819 414.327 123.386C414.052 123.958 413.91 124.585 413.912 125.22L413.324 137.153Z" fill="#6144FF"/>
<path d="M443.625 147.374C443.556 147.611 443.412 147.82 443.215 147.969C443.019 148.118 442.78 148.201 442.533 148.205H438.863C438.728 148.216 438.592 148.191 438.47 148.134C438.347 148.076 438.241 147.988 438.164 147.877C438.092 147.762 438.053 147.63 438.053 147.495C438.053 147.359 438.092 147.227 438.164 147.112L443.45 134.661L435.979 116.572C435.92 116.447 435.894 116.31 435.901 116.173C435.909 116.036 435.951 115.902 436.022 115.785C436.097 115.669 436.201 115.575 436.324 115.514C436.447 115.452 436.584 115.425 436.722 115.436L440.566 115.436C440.916 115.436 441.222 115.727 441.484 116.31L446.421 128.15L451.446 116.265C451.65 115.713 451.926 115.436 452.276 115.436L456.121 115.436C456.261 115.427 456.401 115.455 456.527 115.516C456.654 115.577 456.762 115.67 456.842 115.785C456.921 115.9 456.964 116.036 456.968 116.175C456.972 116.315 456.935 116.452 456.863 116.572L443.625 147.374Z" fill="#6144FF"/>
<path d="M457.606 126.359C457.585 123.452 458.689 120.65 460.686 118.538C461.635 117.546 462.771 116.751 464.029 116.2C465.337 115.627 466.751 115.336 468.179 115.348C469.601 115.335 471.008 115.625 472.308 116.2C473.557 116.755 474.685 117.55 475.629 118.538C476.589 119.549 477.345 120.736 477.857 122.034C478.935 124.816 478.935 127.902 477.857 130.684C477.345 131.982 476.589 133.168 475.629 134.179C474.68 135.172 473.544 135.966 472.286 136.517C470.975 137.079 469.562 137.369 468.135 137.369C466.708 137.369 465.296 137.079 463.985 136.517C462.727 135.966 461.591 135.172 460.643 134.179C459.682 133.169 458.926 131.982 458.415 130.684C457.868 129.308 457.594 127.84 457.606 126.359ZM462.893 126.359C462.887 127.141 463.02 127.917 463.286 128.653C463.53 129.335 463.9 129.965 464.378 130.509C464.842 131.032 465.407 131.456 466.039 131.755C466.694 132.064 467.411 132.221 468.136 132.213C468.867 132.219 469.591 132.062 470.255 131.755C470.896 131.46 471.468 131.036 471.937 130.509C472.415 129.965 472.786 129.335 473.029 128.653C473.554 127.168 473.554 125.549 473.029 124.064C472.785 123.382 472.415 122.752 471.937 122.208C471.468 121.681 470.896 121.257 470.255 120.962C469.591 120.655 468.867 120.499 468.136 120.504C467.411 120.497 466.694 120.654 466.039 120.962C465.407 121.261 464.842 121.685 464.378 122.208C463.901 122.753 463.53 123.382 463.286 124.064C463.02 124.8 462.887 125.577 462.893 126.359H462.893Z" fill="#6144FF"/>
<path d="M384.791 126.357C384.77 123.45 385.873 120.648 387.871 118.536C388.82 117.544 389.956 116.749 391.214 116.198C392.521 115.625 393.936 115.334 395.364 115.346C396.785 115.333 398.193 115.623 399.493 116.198C400.742 116.753 401.87 117.548 402.814 118.536C403.773 119.548 404.53 120.734 405.042 122.032C406.12 124.814 406.12 127.9 405.042 130.683C404.53 131.98 403.774 133.166 402.814 134.177C401.864 135.17 400.728 135.964 399.471 136.515C398.159 137.077 396.747 137.367 395.32 137.367C393.893 137.367 392.481 137.077 391.169 136.515C389.912 135.964 388.776 135.17 387.827 134.177C386.867 133.167 386.11 131.98 385.599 130.683C385.053 129.306 384.778 127.838 384.791 126.357ZM390.078 126.357C390.072 127.139 390.205 127.915 390.471 128.651C390.714 129.333 391.085 129.963 391.563 130.507C392.027 131.03 392.592 131.454 393.223 131.753C393.879 132.062 394.596 132.219 395.321 132.211C396.052 132.217 396.776 132.06 397.44 131.753C398.08 131.458 398.653 131.034 399.121 130.507C399.6 129.963 399.97 129.333 400.214 128.651C400.739 127.166 400.739 125.547 400.214 124.063C399.97 123.38 399.599 122.75 399.121 122.206C398.653 121.679 398.08 121.255 397.44 120.96C396.776 120.653 396.052 120.497 395.321 120.502C394.596 120.495 393.879 120.652 393.223 120.96C392.592 121.259 392.027 121.683 391.563 122.206C391.085 122.751 390.715 123.38 390.471 124.063C390.205 124.798 390.072 125.575 390.078 126.357H390.078Z" fill="#6144FF"/>
<path d="M498.238 115.436C498.347 115.434 498.455 115.455 498.557 115.496C498.658 115.537 498.75 115.598 498.827 115.676C498.904 115.753 498.965 115.845 499.007 115.946C499.048 116.048 499.069 116.156 499.067 116.265V125.703C499.127 127.64 498.869 129.573 498.303 131.427C497.859 132.777 497.103 134.005 496.097 135.01C495.332 135.772 494.417 136.367 493.41 136.758C492.301 137.179 491.122 137.386 489.936 137.369C488.751 137.434 487.565 137.254 486.453 136.84C485.34 136.427 484.325 135.789 483.47 134.966C482.562 134.016 481.895 132.862 481.525 131.602C481.013 129.724 480.784 127.78 480.848 125.834V116.265C480.832 116.153 480.842 116.038 480.878 115.93C480.914 115.822 480.975 115.724 481.056 115.643C481.136 115.563 481.234 115.502 481.342 115.466C481.45 115.43 481.565 115.42 481.678 115.436L485.086 115.436C485.199 115.42 485.314 115.43 485.422 115.466C485.53 115.502 485.628 115.562 485.709 115.643C485.789 115.723 485.85 115.822 485.886 115.93C485.922 116.038 485.932 116.153 485.917 116.265V126.708C485.89 127.637 486 128.564 486.244 129.461C486.403 130.063 486.729 130.608 487.183 131.034C487.55 131.382 487.982 131.654 488.454 131.834C488.927 132.014 489.431 132.098 489.936 132.082C490.487 132.082 491.035 131.986 491.553 131.798C492.08 131.607 492.557 131.302 492.951 130.903C493.331 130.466 493.594 129.94 493.716 129.373C493.924 128.501 494.02 127.605 494 126.708L494 116.265C493.984 116.153 493.994 116.038 494.03 115.93C494.066 115.822 494.127 115.724 494.207 115.643C494.288 115.563 494.386 115.502 494.494 115.466C494.602 115.43 494.717 115.42 494.829 115.436L498.238 115.436Z" fill="#6144FF"/>
<path d="M411.766 179.281C411.693 179.413 411.588 179.526 411.46 179.608C411.334 179.703 411.182 179.757 411.024 179.761H408.839C408.681 179.757 408.528 179.704 408.402 179.608C408.274 179.526 408.169 179.414 408.096 179.281L402.547 166.478L397.086 179.281C397.012 179.413 396.907 179.526 396.78 179.608C396.654 179.703 396.501 179.757 396.343 179.761H394.158C394 179.757 393.847 179.703 393.721 179.608C393.593 179.526 393.488 179.414 393.416 179.281L384.896 159.051C384.823 158.932 384.787 158.794 384.791 158.655C384.794 158.515 384.838 158.38 384.917 158.265C384.997 158.149 385.105 158.057 385.231 157.995C385.358 157.934 385.498 157.906 385.638 157.915H389.439C389.759 157.915 390.05 158.192 390.313 158.745L395.381 170.804L400.494 158.789C400.756 158.207 401.061 157.915 401.411 157.915H403.77C404.12 157.915 404.426 158.206 404.688 158.789L409.931 170.761L414.912 158.745C414.994 158.507 415.128 158.291 415.305 158.112C415.421 157.994 415.577 157.924 415.742 157.915H419.544C419.684 157.907 419.823 157.934 419.95 157.996C420.076 158.057 420.184 158.149 420.264 158.265C420.343 158.38 420.387 158.515 420.391 158.655C420.394 158.794 420.358 158.932 420.286 159.051L411.766 179.281Z" fill="#6144FF"/>
<path d="M437.237 177.62C436.394 178.235 435.486 178.755 434.528 179.17C433.568 179.609 432.526 179.84 431.47 179.848C430.029 179.863 428.601 179.58 427.275 179.018C426.025 178.487 424.901 177.698 423.977 176.702C423.042 175.684 422.308 174.498 421.814 173.207C421.28 171.813 421.013 170.331 421.027 168.838C421.017 167.377 421.299 165.928 421.857 164.578C422.391 163.282 423.162 162.096 424.13 161.082C425.083 160.083 426.217 159.275 427.472 158.701C428.754 158.115 430.148 157.817 431.557 157.827C432.599 157.832 433.628 158.063 434.572 158.504C435.512 158.927 436.405 159.446 437.237 160.055V158.744C437.236 158.635 437.257 158.526 437.298 158.425C437.339 158.324 437.4 158.232 437.478 158.155C437.555 158.077 437.647 158.016 437.748 157.975C437.85 157.934 437.958 157.913 438.067 157.914L441.476 157.914C441.588 157.898 441.703 157.909 441.811 157.945C441.919 157.981 442.017 158.042 442.098 158.122C442.178 158.203 442.239 158.301 442.275 158.409C442.311 158.517 442.321 158.632 442.305 158.744L442.305 178.931C442.321 179.043 442.311 179.158 442.275 179.266C442.239 179.374 442.178 179.472 442.098 179.553C442.017 179.633 441.919 179.694 441.811 179.73C441.703 179.766 441.588 179.776 441.476 179.76H438.067C437.958 179.762 437.849 179.741 437.748 179.7C437.647 179.659 437.555 179.598 437.477 179.52C437.4 179.443 437.339 179.351 437.298 179.25C437.256 179.148 437.236 179.04 437.237 178.931V177.62ZM426.314 168.838C426.308 169.595 426.457 170.346 426.751 171.044C427.033 171.714 427.432 172.328 427.93 172.857C428.421 173.379 429.007 173.801 429.656 174.103C430.306 174.407 431.015 174.563 431.732 174.561C432.471 174.571 433.203 174.414 433.873 174.103C434.509 173.8 435.08 173.377 435.555 172.857C436.038 172.329 436.416 171.713 436.669 171.044C437.194 169.62 437.194 168.055 436.669 166.631C436.416 165.961 436.038 165.346 435.555 164.818C435.08 164.298 434.509 163.875 433.873 163.573C433.203 163.261 432.471 163.104 431.732 163.114C431.015 163.111 430.306 163.268 429.656 163.573C429.007 163.874 428.421 164.296 427.93 164.818C427.432 165.347 427.033 165.961 426.751 166.631C426.457 167.329 426.308 168.08 426.314 168.838V168.838Z" fill="#6144FF"/>
<path d="M452.442 189.854C452.372 190.091 452.228 190.3 452.032 190.449C451.835 190.598 451.596 190.681 451.349 190.685L447.679 190.685C447.544 190.696 447.409 190.671 447.286 190.614C447.163 190.556 447.058 190.467 446.98 190.357C446.908 190.242 446.87 190.11 446.87 189.975C446.87 189.839 446.908 189.707 446.98 189.592L452.267 177.141L444.796 159.051C444.737 158.927 444.71 158.79 444.717 158.653C444.725 158.515 444.767 158.382 444.839 158.265C444.913 158.149 445.017 158.056 445.14 157.994C445.263 157.932 445.401 157.905 445.538 157.916L449.383 157.916C449.732 157.916 450.038 158.207 450.3 158.79L455.238 170.63L460.262 158.745C460.466 158.193 460.743 157.916 461.093 157.916H464.938C465.078 157.907 465.218 157.935 465.344 157.996C465.47 158.057 465.579 158.15 465.659 158.265C465.737 158.38 465.781 158.516 465.785 158.655C465.788 158.795 465.752 158.932 465.68 159.051L452.442 189.854Z" fill="#6144FF"/>
<path d="M515.366 120.329C515.332 120.436 515.275 120.534 515.199 120.616C515.124 120.699 515.032 120.765 514.929 120.81C514.824 120.853 514.71 120.871 514.596 120.864C514.483 120.856 514.373 120.823 514.274 120.766C514.001 120.636 513.715 120.533 513.422 120.46C513.072 120.371 512.712 120.327 512.352 120.329C511.719 120.327 511.093 120.462 510.517 120.723C509.939 120.982 509.413 121.345 508.966 121.793C508.513 122.246 508.15 122.779 507.895 123.366C507.635 123.951 507.501 124.583 507.502 125.223L507.415 136.452C507.421 136.67 507.342 136.881 507.196 137.042C507.125 137.121 507.037 137.183 506.938 137.224C506.84 137.266 506.734 137.285 506.628 137.282L503.176 137.282C503.067 137.283 502.958 137.263 502.857 137.222C502.756 137.18 502.663 137.119 502.586 137.042C502.509 136.965 502.448 136.873 502.407 136.771C502.365 136.67 502.345 136.561 502.346 136.452L502.346 116.266C502.345 116.156 502.366 116.048 502.407 115.947C502.448 115.845 502.509 115.753 502.587 115.676C502.664 115.599 502.756 115.538 502.857 115.497C502.958 115.455 503.067 115.435 503.176 115.436L506.628 115.436C506.734 115.433 506.84 115.452 506.938 115.494C507.037 115.535 507.125 115.598 507.196 115.677C507.342 115.838 507.42 116.049 507.415 116.266V117.446C508.254 116.837 509.164 116.331 510.123 115.938C511.109 115.54 512.163 115.34 513.226 115.348C514.254 115.324 515.274 115.549 516.197 116.004C516.378 116.09 516.519 116.242 516.592 116.429C516.665 116.615 516.664 116.823 516.59 117.009L515.366 120.329Z" fill="#6144FF"/>
<path d="M469.518 154.648C469.518 154.7 469.559 154.746 469.616 154.746H470.284L470.279 157.629C470.279 157.681 470.32 157.728 470.372 157.728H470.828C470.884 157.728 470.926 157.681 470.926 157.629V154.757H471.604C471.656 154.757 471.702 154.71 471.702 154.658V154.203C471.702 154.151 471.656 154.104 471.604 154.104H469.616C469.559 154.104 469.518 154.151 469.518 154.203V154.648ZM475.21 154.104C475.174 154.104 475.132 154.136 475.101 154.208L474.107 156.584L473.108 154.203C473.077 154.136 473.041 154.104 473.005 154.104H472.637C472.596 154.104 472.549 154.146 472.534 154.224L471.965 157.614C471.954 157.681 471.996 157.728 472.063 157.728H472.539C472.586 157.728 472.632 157.686 472.637 157.645L472.969 155.6L473.833 157.629C473.859 157.696 473.9 157.728 473.962 157.728H474.226C474.283 157.728 474.325 157.696 474.361 157.608L475.23 155.59L475.567 157.645C475.572 157.686 475.619 157.728 475.665 157.728H476.152C476.219 157.728 476.26 157.681 476.25 157.614L475.681 154.229C475.665 154.146 475.619 154.104 475.577 154.104H475.21Z" fill="#6144FF"/>
</g>
<defs>
<filter id="filter0_b" x="-77.2295" y="-187.123" width="883.056" height="670.696" filterUnits="userSpaceOnUse" color-interpolation-filters="sRGB">
<feFlood flood-opacity="0" result="BackgroundImageFix"/>
<feGaussianBlur in="BackgroundImage" stdDeviation="32.7969"/>
<feComposite in2="SourceAlpha" operator="in" result="effect1_backgroundBlur"/>
<feBlend mode="normal" in="SourceGraphic" in2="effect1_backgroundBlur" result="shape"/>
</filter>
<linearGradient id="paint0_linear" x1="82.5334" y1="272.717" x2="82.5334" y2="483.789" gradientUnits="userSpaceOnUse">
<stop stop-color="#FFA000"/>
<stop offset="1" stop-color="#FF4700"/>
</linearGradient>
<linearGradient id="paint1_linear" x1="319.901" y1="111.425" x2="406.714" y2="137.646" gradientUnits="userSpaceOnUse">
<stop stop-color="#6144FF"/>
<stop offset="1" stop-color="#6144FF" stop-opacity="0"/>
</linearGradient>
<linearGradient id="paint2_linear" x1="271.657" y1="111.424" x2="339.337" y2="168.673" gradientUnits="userSpaceOnUse">
<stop stop-color="#6144FF"/>
<stop offset="1" stop-color="#6144FF" stop-opacity="0"/>
</linearGradient>
<linearGradient id="paint3_linear" x1="342.512" y1="115.346" x2="364.671" y2="119.108" gradientUnits="userSpaceOnUse">
<stop stop-color="#FF4600" stop-opacity="0.86"/>
<stop offset="1" stop-color="#FFA000"/>
</linearGradient>
<clipPath id="clip0">
<rect width="730" height="310" fill="white"/>
</clipPath>
</defs>
</svg>
